<?xml version="1.0" encoding="UTF-8"?>
<!DOCTYPE svg PUBLIC "-//W3C//DTD SVG 1.1//EN" "http://www.w3.org/Graphics/SVG/1.1/DTD/svg11.dtd">
<svg xmlns="http://www.w3.org/2000/svg" version="1.1" width="1920px" height="315px" style="shape-rendering:geometricPrecision; text-rendering:geometricPrecision; image-rendering:optimizeQuality; fill-rule:evenodd; clip-rule:evenodd" xmlns:xlink="http://www.w3.org/1999/xlink">
<g><path style="opacity:1" fill="#000000" d="M 565.5,198.5 C 570.637,197.932 575.637,197.266 580.5,196.5C 597.54,194.804 614.54,194.47 631.5,195.5C 632.791,195.737 633.791,195.404 634.5,194.5C 634.833,194.5 635.167,194.5 635.5,194.5C 637.475,194.822 639.142,194.822 640.5,194.5C 640.833,194.5 641.167,194.5 641.5,194.5C 642.99,196.28 644.99,196.946 647.5,196.5C 666.155,198.026 684.655,200.692 703,204.5C 704.481,202.852 706.315,201.852 708.5,201.5C 711.028,202.942 713.695,203.442 716.5,203C 720.618,201.198 724.452,199.031 728,196.5C 730.859,187.586 733.526,178.586 736,169.5C 736.037,162.673 737.037,156.006 739,149.5C 743.133,141.731 746.299,133.564 748.5,125C 746.806,115.856 746.473,106.689 747.5,97.5C 746.336,94.505 745.17,91.505 744,88.5C 742.192,92.0148 740.692,95.6814 739.5,99.5C 735.21,100.891 733.21,99.224 733.5,94.5C 733.667,93.1667 733.833,91.8333 734,90.5C 736.148,89.0226 737.482,87.0226 738,84.5C 738.195,79.5821 738.695,74.7488 739.5,70C 737.09,69.2421 736.09,67.5754 736.5,65C 737.041,61.1721 737.541,57.3388 738,53.5C 739.219,49.1077 742.052,46.7743 746.5,46.5C 746.708,44.0799 746.374,41.7466 745.5,39.5C 747.64,35.3311 749.474,30.9977 751,26.5C 762.068,20.2857 769.235,23.2857 772.5,35.5C 769.685,39.5593 770.185,42.8926 774,45.5C 774.483,46.448 774.649,47.448 774.5,48.5C 771.192,49.0262 769.026,47.6928 768,44.5C 767.097,45.7014 765.931,46.5348 764.5,47C 770.186,52.6973 776.853,56.6973 784.5,59C 787.004,63.2615 790.671,66.0948 795.5,67.5C 799.859,70.349 802.859,74.1824 804.5,79C 803.05,83.4648 800.383,87.1314 796.5,90C 788.308,93.852 782.641,99.852 779.5,108C 780.813,114.493 780.813,120.993 779.5,127.5C 781.722,132.611 783.056,137.945 783.5,143.5C 789.214,141.989 794.881,141.156 800.5,141C 804.647,134.856 809.48,129.356 815,124.5C 815.818,121.773 815.652,119.106 814.5,116.5C 807.142,112.879 799.642,109.546 792,106.5C 791.502,103.518 791.335,100.518 791.5,97.5C 792.873,97.3433 794.207,97.51 795.5,98C 800.425,102.05 805.925,105.216 812,107.5C 811.719,103.13 810.886,98.7964 809.5,94.5C 811.845,87.1501 814.178,79.8167 816.5,72.5C 815.127,72.6567 813.793,72.49 812.5,72C 811.696,70.2287 810.529,68.7287 809,67.5C 807.906,62.008 806.739,56.508 805.5,51C 805.439,49.2894 806.106,47.956 807.5,47C 810.511,46.2569 813.178,44.9235 815.5,43C 820.709,42.9115 825.709,42.0781 830.5,40.5C 835.942,41.6544 839.442,44.9877 841,50.5C 843.039,52.8745 845.372,54.8745 848,56.5C 847.761,60.1842 849.261,62.8509 852.5,64.5C 851.45,67.0032 852.45,68.5032 855.5,69C 853.443,69.3052 851.443,69.3052 849.5,69C 848.305,70.3898 848.305,71.8898 849.5,73.5C 847.954,72.316 846.287,71.316 844.5,70.5C 843.586,68.3359 842.419,66.3359 841,64.5C 840.8,66.3197 839.966,67.653 838.5,68.5C 838.508,62.7924 838.008,62.4591 837,67.5C 836.333,66.1667 835.667,64.8333 835,63.5C 834.79,65.0581 834.29,66.3915 833.5,67.5C 834.514,68.6737 835.847,69.3404 837.5,69.5C 843.125,71.0704 847.958,74.0704 852,78.5C 852.667,80.1667 852.667,81.8333 852,83.5C 847.601,91.1447 843.101,98.6447 838.5,106C 840.376,111.965 843.542,117.132 848,121.5C 849.099,135.699 853.099,149.032 860,161.5C 861.167,162.667 862.333,163.833 863.5,165C 868.833,166 874.167,167 879.5,168C 887.885,168.259 896.218,167.759 904.5,166.5C 904.166,173.507 903.666,180.507 903,187.5C 902.427,191.342 900.427,194.009 897,195.5C 896.228,195.355 895.561,195.022 895,194.5C 894.667,190.833 894.333,187.167 894,183.5C 892.649,181.981 891.149,180.648 889.5,179.5C 889.709,178.914 890.043,178.414 890.5,178C 883.313,177.297 876.147,177.464 869,178.5C 857.879,179.44 849.546,175.107 844,165.5C 842.612,166.554 841.112,166.72 839.5,166C 837.612,159.55 833.279,156.216 826.5,156C 824.098,153.314 821.098,152.314 817.5,153C 811.955,156.878 807.455,161.711 804,167.5C 803.667,171.5 803.333,175.5 803,179.5C 799.438,187.291 796.438,195.291 794,203.5C 793.501,207.821 793.334,212.154 793.5,216.5C 798.938,216.988 804.271,217.988 809.5,219.5C 810.979,220.148 812.479,220.481 814,220.5C 814.21,218.942 814.71,217.609 815.5,216.5C 815.5,216.833 815.5,217.167 815.5,217.5C 815.369,218.376 815.702,219.043 816.5,219.5C 817.176,218.398 817.842,217.398 818.5,216.5C 818.328,217.492 818.662,218.158 819.5,218.5C 820.268,219.263 820.768,220.263 821,221.5C 821.333,221.167 821.667,220.833 822,220.5C 822.422,222.426 823.589,223.426 825.5,223.5C 852.936,226.737 880.436,229.403 908,231.5C 922.645,229.873 937.311,228.539 952,227.5C 956.679,227.938 961.345,228.271 966,228.5C 981.72,222.642 997.72,217.642 1014,213.5C 1016.18,214.524 1018.35,214.357 1020.5,213C 1024.83,212.833 1029.17,212.667 1033.5,212.5C 1039.46,212.285 1045.3,212.952 1051,214.5C 1051.87,214.265 1052.71,213.931 1053.5,213.5C 1078.02,219.213 1102.35,225.713 1126.5,233C 1129.89,233.659 1133.22,233.492 1136.5,232.5C 1137.26,233.391 1138.26,234.058 1139.5,234.5C 1141.61,233.35 1143.61,232.016 1145.5,230.5C 1146.17,230.833 1146.83,231.167 1147.5,231.5C 1152.72,228.584 1158.22,227.251 1164,227.5C 1165.38,227.316 1166.21,226.649 1166.5,225.5C 1184.14,224.057 1201.64,225.057 1219,228.5C 1235.21,223.097 1251.54,218.097 1268,213.5C 1268.41,213.957 1268.91,214.291 1269.5,214.5C 1272.97,212.938 1276.64,212.105 1280.5,212C 1293.53,211.231 1306.53,211.564 1319.5,213C 1334.73,216.104 1349.89,220.27 1365,225.5C 1368.7,219.79 1373.2,214.624 1378.5,210C 1385.64,204.197 1392.81,198.363 1400,192.5C 1402.16,187.517 1404.16,182.517 1406,177.5C 1415.83,162.724 1425.66,147.89 1435.5,133C 1437.27,131.561 1439.27,130.561 1441.5,130C 1462.65,124.391 1484.15,121.558 1506,121.5C 1513.83,121.667 1521.67,121.833 1529.5,122C 1536.31,124.067 1541.64,128.067 1545.5,134C 1544.35,135.859 1542.69,136.693 1540.5,136.5C 1536.88,135.03 1533.22,133.53 1529.5,132C 1526.37,131.21 1523.37,131.543 1520.5,133C 1524.53,134.347 1527.86,136.681 1530.5,140C 1530.14,141.885 1528.97,142.719 1527,142.5C 1520.55,141.104 1514.05,139.938 1507.5,139C 1505.86,136.69 1503.7,135.19 1501,134.5C 1485.18,140.976 1469.01,146.476 1452.5,151C 1447.21,161.089 1442.04,171.255 1437,181.5C 1435.8,187.753 1435.13,194.086 1435,200.5C 1433.44,204.821 1431.94,209.155 1430.5,213.5C 1431.27,214.711 1432.11,214.711 1433,213.5C 1435.36,206.147 1439.86,200.647 1446.5,197C 1449.36,190.146 1454.52,186.312 1462,185.5C 1463.33,185.755 1464.33,186.422 1465,187.5C 1476.99,182.835 1487.99,184.502 1498,192.5C 1503.58,200.678 1505.41,209.678 1503.5,219.5C 1513.68,216.165 1524.01,213.331 1534.5,211C 1552.5,210.333 1570.5,210.333 1588.5,211C 1594.19,211.474 1599.69,212.641 1605,214.5C 1605.41,214.043 1605.91,213.709 1606.5,213.5C 1630.1,219.855 1653.77,226.022 1677.5,232C 1689.17,234.741 1701,236.241 1713,236.5C 1726.54,235.406 1740.04,233.906 1753.5,232C 1775.04,224.597 1796.71,217.597 1818.5,211C 1836.83,210.333 1855.17,210.333 1873.5,211C 1889.05,214.463 1904.39,218.63 1919.5,223.5C 1919.5,253.833 1919.5,284.167 1919.5,314.5C 1279.5,314.5 639.5,314.5 -0.5,314.5C -0.5,267.5 -0.5,220.5 -0.5,173.5C 39.4041,181.114 79.4041,188.28 119.5,195C 140.591,200.197 161.258,206.697 181.5,214.5C 181.833,214.333 182.167,214.167 182.5,214C 172.513,201.549 169.013,187.383 172,171.5C 177.222,151.783 190.056,141.45 210.5,140.5C 215.893,140.475 221.059,141.475 226,143.5C 228.917,139.334 231.584,135.001 234,130.5C 233.734,121.023 231.401,112.023 227,103.5C 220.702,101.069 214.702,98.0691 209,94.5C 208.517,93.552 208.351,92.552 208.5,91.5C 216.84,91.6664 225.173,91.4997 233.5,91C 229.993,84.4628 229.159,77.6295 231,70.5C 237.124,56.3788 247.624,47.2121 262.5,43C 267.677,41.0392 273.01,39.7058 278.5,39C 290.567,38.3367 302.567,38.67 314.5,40C 312.827,34.0709 313.494,28.4042 316.5,23C 322.522,23.0766 328.522,23.7432 334.5,25C 343.619,28.7012 347.285,35.3678 345.5,45C 344.234,45.3095 343.067,45.8095 342,46.5C 340.273,49.6179 339.439,52.9513 339.5,56.5C 338.448,56.3505 337.448,56.5172 336.5,57C 334.5,59.6667 332.167,62 329.5,64C 326.86,64.839 324.527,64.339 322.5,62.5C 321.914,62.7093 321.414,63.0426 321,63.5C 313.038,76.7963 312.538,90.4629 319.5,104.5C 320.167,104.833 320.833,105.167 321.5,105.5C 326.434,105.318 331.434,105.151 336.5,105C 338.5,104.333 339.833,103 340.5,101C 344.288,99.9423 346.288,101.442 346.5,105.5C 345.219,110.48 345.219,115.48 346.5,120.5C 346.176,122.569 345.342,122.902 344,121.5C 343,118.167 342,114.833 341,111.5C 338.704,113.057 336.538,114.724 334.5,116.5C 339.291,122.489 337.957,126.656 330.5,129C 328.833,129.667 327.167,129.667 325.5,129C 324.219,126.597 322.386,124.763 320,123.5C 318.256,124.649 318.089,125.983 319.5,127.5C 317.406,129.921 315.74,132.588 314.5,135.5C 314.84,137.512 315.173,139.512 315.5,141.5C 343.78,137.88 362.28,149.547 371,176.5C 374.386,195.354 368.886,210.854 354.5,223C 355.167,223.167 355.833,223.333 356.5,223.5C 372.833,218.6 389.5,215.433 406.5,214C 438.092,210.647 469.759,208.313 501.5,207C 522.737,203.371 544.07,200.537 565.5,198.5 Z M 829.5,45.5 C 831.76,46.2376 831.927,47.2376 830,48.5C 829.517,47.552 829.351,46.552 829.5,45.5 Z M 833.5,67.5 C 831.883,66.962 830.216,66.6287 828.5,66.5C 828.231,64.5714 828.731,62.9047 830,61.5C 831.947,63.0634 833.114,65.0634 833.5,67.5 Z M 838.5,68.5 C 837.833,68.5 837.5,68.8333 837.5,69.5C 835.847,69.3404 834.514,68.6737 833.5,67.5C 834.29,66.3915 834.79,65.0581 835,63.5C 835.667,64.8333 836.333,66.1667 837,67.5C 838.008,62.4591 838.508,62.7924 838.5,68.5 Z M 300.5,72.5 C 301.139,73.0968 301.472,73.9302 301.5,75C 300.377,80.4739 299.877,85.9739 300,91.5C 301.93,97.1964 304.764,102.363 308.5,107C 305.863,109.074 303.363,108.907 301,106.5C 294.015,95.1521 293.849,83.8188 300.5,72.5 Z M 278.5,74.5 C 280.167,74.5 281.833,74.5 283.5,74.5C 283.883,79.3426 283.217,84.0093 281.5,88.5C 278.51,85.2077 275.51,81.8743 272.5,78.5C 274.219,76.6478 276.219,75.3145 278.5,74.5 Z M 780.5,76.5 C 781.973,77.072 783.307,77.9054 784.5,79C 786.441,79.7429 788.274,79.5762 790,78.5C 787.662,85.3637 783.162,90.697 776.5,94.5C 776.167,94.1667 775.833,93.8333 775.5,93.5C 777.78,87.9941 779.447,82.3274 780.5,76.5 Z M 838.5,81.5 C 842.042,82.0913 842.375,83.4246 839.5,85.5C 838.571,84.3112 838.238,82.9778 838.5,81.5 Z M 236.5,96.5 C 238.074,96.9371 239.241,97.9371 240,99.5C 245.073,108.473 251.24,116.64 258.5,124C 252.486,125.172 246.486,125.338 240.5,124.5C 237.63,116.557 234.964,108.557 232.5,100.5C 233.437,98.712 234.77,97.3786 236.5,96.5 Z M 290.5,112.5 C 292.636,114.812 294.636,117.312 296.5,120C 295.056,120.781 293.723,120.614 292.5,119.5C 291.423,117.271 290.756,114.937 290.5,112.5 Z M 285.5,153.5 C 286.814,145.408 289.314,137.742 293,130.5C 295.132,129.22 297.298,129.22 299.5,130.5C 300.888,131.591 301.388,132.924 301,134.5C 295.969,141.022 290.803,147.356 285.5,153.5 Z M 242.5,131.5 C 245.518,131.335 248.518,131.502 251.5,132C 249,133.833 246.5,135.667 244,137.5C 243.187,135.564 242.687,133.564 242.5,131.5 Z M 236.5,137.5 C 237.67,139.65 238.67,141.984 239.5,144.5C 238.533,146.63 237.366,148.63 236,150.5C 234.647,149.315 233.48,147.981 232.5,146.5C 234.12,143.596 235.453,140.596 236.5,137.5 Z M 270.5,138.5 C 269.087,147.097 268.254,155.764 268,164.5C 267.117,170.033 265.617,175.367 263.5,180.5C 261.465,179.959 259.465,179.292 257.5,178.5C 254.385,170.337 252.218,162.004 251,153.5C 257.376,148.285 263.876,143.285 270.5,138.5 Z M 288.5,187.5 C 286.465,185.291 284.132,183.291 281.5,181.5C 280.5,179.5 279.5,177.5 278.5,175.5C 286.745,164.75 295.912,154.75 306,145.5C 304.291,149.251 301.624,152.585 298,155.5C 290.907,164.951 287.74,175.618 288.5,187.5 Z M 766.5,208.5 C 765.833,208.5 765.5,208.833 765.5,209.5C 765.167,209.5 764.833,209.5 764.5,209.5C 764.631,208.761 764.464,208.094 764,207.5C 762.348,208.399 760.848,209.399 759.5,210.5C 751.875,209.412 744.209,208.579 736.5,208C 735.376,207.751 734.376,207.251 733.5,206.5C 739.796,196.241 745.296,185.574 750,174.5C 750.333,169.833 750.667,165.167 751,160.5C 755.097,155.313 759.43,150.313 764,145.5C 766.729,151.563 770.896,156.397 776.5,160C 781.455,159.623 786.288,158.456 791,156.5C 791.5,156.833 792,157.167 792.5,157.5C 789.365,172.044 786.865,186.71 785,201.5C 784.259,202.641 783.425,202.641 782.5,201.5C 780.72,203.444 778.553,204.777 776,205.5C 773.305,203.886 770.472,203.052 767.5,203C 765.19,204.459 764.857,206.292 766.5,208.5 Z M 202.5,148.5 C 207.179,148.334 211.845,148.501 216.5,149C 218.421,149.36 220.088,150.194 221.5,151.5C 215.587,162.993 209.421,174.327 203,185.5C 201.884,190.395 203.884,193.061 209,193.5C 211.843,192.976 214.177,191.642 216,189.5C 225.22,191.263 234.387,193.263 243.5,195.5C 234.405,218.548 218.405,225.382 195.5,216C 177.088,201.519 172.922,183.685 183,162.5C 187.757,155.222 194.257,150.556 202.5,148.5 Z M 325.5,148.5 C 346.653,148.659 359.819,158.993 365,179.5C 367.17,198.331 360.003,212.165 343.5,221C 322.115,226.224 306.948,218.724 298,198.5C 291.958,182.068 295.291,168.068 308,156.5C 313.081,165.665 318.415,174.665 324,183.5C 324.973,185.392 325.64,187.392 326,189.5C 329.271,192.197 332.271,191.864 335,188.5C 336.328,183.662 334.494,181.329 329.5,181.5C 329.649,178.393 329.149,175.393 328,172.5C 324.755,165.676 321.255,159.009 317.5,152.5C 319.911,150.59 322.577,149.256 325.5,148.5 Z M 228.5,154.5 C 229.995,154.415 230.995,155.081 231.5,156.5C 225.076,163.646 224.076,162.98 228.5,154.5 Z M 239.5,169.5 C 241.614,170.36 242.78,172.027 243,174.5C 243.373,176.698 243.873,178.865 244.5,181C 243.352,182.726 242.185,182.559 241,180.5C 239.892,176.914 239.392,173.247 239.5,169.5 Z M 219.5,173.5 C 224.111,175.403 226.111,178.736 225.5,183.5C 222.221,182.527 219.221,181.027 216.5,179C 218.16,177.512 219.16,175.679 219.5,173.5 Z M 281.5,196.5 C 283.995,196.595 286.662,196.262 289.5,195.5C 294.668,212.065 305.335,223.232 321.5,229C 300.167,229.667 278.833,229.667 257.5,229C 247.889,227.009 238.223,225.343 228.5,224C 239.301,218.535 246.468,210.035 250,198.5C 254.128,205.489 259.961,207.322 267.5,204C 269.24,201.965 271.074,200.131 273,198.5C 275.968,200.078 279.135,200.745 282.5,200.5C 282.768,198.901 282.434,197.568 281.5,196.5 Z"/></g>
<g><path style="opacity:1" fill="#8a8a8a" d="M 640.5,194.5 C 639.142,194.822 637.475,194.822 635.5,194.5C 635.783,193.711 636.283,193.044 637,192.5C 638.552,192.011 639.719,192.678 640.5,194.5 Z"/></g>
<g><path style="opacity:1" fill="#cbcbcb" d="M 634.5,194.5 C 633.791,195.404 632.791,195.737 631.5,195.5C 632.172,194.733 633.005,194.066 634,193.5C 634.399,193.728 634.565,194.062 634.5,194.5 Z"/></g>
<g><path style="opacity:1" fill="#929292" d="M 641.5,194.5 C 643.698,194.875 645.698,195.542 647.5,196.5C 644.99,196.946 642.99,196.28 641.5,194.5 Z"/></g>
<g><path style="opacity:1" fill="#777777" d="M 580.5,196.5 C 575.637,197.266 570.637,197.932 565.5,198.5C 566.958,196.989 568.791,195.989 571,195.5C 573.799,196.198 576.966,196.532 580.5,196.5 Z"/></g>
<g><path style="opacity:1" fill="#8f8f8f" d="M 764.5,209.5 C 762.958,210.301 761.292,210.634 759.5,210.5C 760.848,209.399 762.348,208.399 764,207.5C 764.464,208.094 764.631,208.761 764.5,209.5 Z"/></g>
<g><path style="opacity:1" fill="#686868" d="M 766.5,208.5 C 767.116,210.417 768.45,211.584 770.5,212C 767.738,213.077 766.072,212.244 765.5,209.5C 765.5,208.833 765.833,208.5 766.5,208.5 Z"/></g>
<g><path style="opacity:1" fill="#7d7d7d" d="M 818.5,216.5 C 817.842,217.398 817.176,218.398 816.5,219.5C 815.702,219.043 815.369,218.376 815.5,217.5C 816.309,215.708 816.809,213.708 817,211.5C 818.009,213.025 818.509,214.692 818.5,216.5 Z"/></g>
<g><path style="opacity:1" fill="#8a8a8a" d="M 815.5,216.5 C 814.71,217.609 814.21,218.942 814,220.5C 812.479,220.481 810.979,220.148 809.5,219.5C 810.75,219.423 811.583,218.756 812,217.5C 812.333,217.833 812.667,218.167 813,218.5C 813.333,216.5 813.667,214.5 814,212.5C 814.791,213.745 815.291,215.078 815.5,216.5 Z"/></g>
<g><path style="opacity:1" fill="#898989" d="M 825.5,221.5 C 825.5,222.167 825.5,222.833 825.5,223.5C 823.589,223.426 822.422,222.426 822,220.5C 821.667,220.833 821.333,221.167 821,221.5C 820.768,220.263 820.268,219.263 819.5,218.5C 820.797,210.69 821.631,211.024 822,219.5C 827.045,215.422 827.545,215.922 823.5,221C 824.094,221.464 824.761,221.631 825.5,221.5 Z"/></g>
<g><path style="opacity:1" fill="#d4d5d4" d="M 825.5,220.5 C 826.833,221.167 826.833,221.167 825.5,220.5 Z"/></g>
<g><path style="opacity:0.088" fill="#0e1d23" d="M 1166.5,225.5 C 1166.21,226.649 1165.38,227.316 1164,227.5C 1158.22,227.251 1152.72,228.584 1147.5,231.5C 1146.83,231.167 1146.17,230.833 1145.5,230.5C 1143.61,232.016 1141.61,233.35 1139.5,234.5C 1138.26,234.058 1137.26,233.391 1136.5,232.5C 1146.1,228.601 1156.1,226.267 1166.5,225.5 Z"/></g>
</svg>
