<?xml version="1.0" encoding="UTF-8" standalone="no"?><!DOCTYPE svg PUBLIC "-//W3C//DTD SVG 1.1//EN" "http://www.w3.org/Graphics/SVG/1.1/DTD/svg11.dtd"><svg width="100%" height="100%" viewBox="0 0 8000 1717" version="1.1" xmlns="http://www.w3.org/2000/svg" xmlns:xlink="http://www.w3.org/1999/xlink" xml:space="preserve" xmlns:serif="http://www.serif.com/" style="fill-rule:evenodd;clip-rule:evenodd;stroke-linejoin:round;stroke-miterlimit:2;"><g><path d="M1314.17,110.833c-4.167,9.584 -5.834,24.167 -5,37.917l1.25,22.5l-22.917,-3.333c-12.5,-1.667 -50,-3.334 -83.333,-2.917c-54.584,-0 -63.334,1.25 -93.75,11.667c-72.917,25 -110.417,53.333 -137.5,103.75c-13.334,24.166 -15.417,62.083 -5,87.083l6.666,15.833l-52.083,0c-46.25,0 -52.083,0.834 -50.833,6.667c1.25,7.083 23.75,20.417 57.916,34.583c18.75,7.5 19.584,8.75 32.084,42.917c6.666,19.167 13.75,43.75 15.416,54.167c2.5,17.5 1.25,21.666 -14.166,48.333l-17.084,29.167l-23.75,-6.25c-31.25,-8.334 -74.583,-5.417 -107.5,7.083c-18.75,7.083 -32.083,16.667 -52.5,37.5c-24.166,23.75 -29.166,31.25 -36.666,55.833c-19.167,61.667 -8.334,137.5 25.833,185.417l15,20.417l-11.25,-3.334c-6.25,-1.666 -33.75,-11.25 -61.25,-20.833c-120,-42.083 -175,-56.667 -275,-72.917c-84.583,-14.166 -246.667,-43.75 -341.667,-62.5c-40.416,-7.916 -74.583,-14.583 -75.416,-14.583c-0.834,-0 -1.667,222.917 -1.667,495.833l-0,495.834l8000,-0l0,-781.25l-17.5,-0.417c-9.583,-0.417 -184.167,-51.667 -290.833,-53.333c-54.584,-0.834 -91.667,0.416 -94.584,2.916c-2.916,2.084 -65.833,9.167 -67.916,14.167c-2.5,6.25 -47.084,16.25 -48.334,20c-1.666,3.75 -63.333,22.5 -66.666,21.25c-2.917,-1.25 -54.584,16.25 -57.5,20.417c-2.917,4.166 -25.417,12.083 -34.584,12.5c-9.166,0.833 -19.166,2.5 -22.083,4.166c-2.917,1.667 -157.917,19.584 -169.167,16.667c-11.25,-2.917 -67.5,-8.75 -76.666,-7.5c-13.75,2.083 -147.084,-30.833 -148.75,-34.583c-1.667,-4.584 -16.667,2.5 -23.75,-0.834c-5.417,-2.5 -18.334,-5.833 -29.167,-7.083c-10.417,-1.667 -19.167,-5 -19.167,-7.083c0,-2.5 -2.916,-3.334 -6.25,-1.667c-3.333,1.25 -22.5,-5.833 -27.083,-5.833c-4.583,-0 -36.25,-7.084 -65.833,-19.167c-7.5,-3.333 -19.167,-5.833 -25.834,-5.833c-6.666,-0 -12.916,-1.667 -14.166,-3.75c-1.25,-1.667 -6.667,-2.5 -12.084,-1.667c-5.416,1.25 -12.5,-0.833 -15.833,-4.167c-3.75,-3.75 -11.25,-5 -19.167,-4.166c-7.083,1.25 -13.75,-0 -15.416,-2.084c-1.667,-2.5 -9.167,-3.333 -17.084,-2.083c-7.916,1.25 -17.5,0.833 -21.666,-0.833c-10.417,-4.584 -168.334,-5 -170.834,-0.834c-1.25,2.084 -7.916,2.917 -15.416,2.5c-7.084,-0.833 -15.417,0.417 -18.334,2.084c-2.916,1.666 -10,2.083 -15.416,0.833c-6.667,-1.667 -17.917,10.417 -25,9.167c-5.834,-1.25 -15.417,5.416 -21.667,7.916c-7.917,3.75 -44.583,17.917 -51.25,13.75c-3.333,-2.083 -7.083,-2.916 -8.333,-2.083c-1.667,0.833 -1.25,-7.5 0.416,-19.167c7.917,-50.833 -12.083,-95 -52.5,-113.75c-29.166,-13.75 -53.333,-16.666 -82.5,-10c-16.666,3.75 -27.916,4.584 -27.916,2.084c-0,-5.834 -37.5,0.833 -44.584,7.916c-3.333,3.334 -7.5,5.834 -9.583,5.834c-1.667,-0 -6.25,6.666 -10.417,15c-3.75,7.916 -10,15.833 -13.333,17.083c-11.667,4.583 -37.917,34.167 -47.083,53.75c-8.75,17.083 -20.834,26.667 -14.584,10.833c9.167,-23.333 15.834,-53.333 18.75,-86.25c2.917,-34.166 5,-41.666 26.667,-85.416c13.333,-26.25 27.917,-56.25 32.917,-66.667c9.166,-18.333 9.583,-18.75 42.5,-27.083c31.666,-7.917 45.416,-12.5 75,-25c21.25,-8.75 70,-26.25 83.333,-29.584c16.25,-4.166 23.333,-2.5 33.75,7.084c5.833,5.416 19.167,9.583 39.583,12.083c17.084,2.5 37.084,5.417 44.167,6.667c10.417,2.083 14.167,0.833 16.25,-4.167c2.917,-7.917 -5.833,-16.25 -27.083,-25.833c-11.25,-5 -12.917,-7.5 -8.334,-10.417c10,-6.25 30,-3.75 51.667,6.667c23.75,11.666 36.25,12.916 43.333,4.583c7.084,-8.75 -14.166,-31.667 -42.916,-45.417c-22.5,-11.25 -23.334,-11.25 -114.584,-11.25c-50.416,0 -100,1.667 -109.583,4.167c-10,2.083 -30,5.833 -45,8.75c-15,2.5 -35.417,6.25 -45.833,7.917c-42.5,7.5 -80.417,17.083 -89.167,22.916c-5,3.334 -13.75,14.167 -19.167,23.75c-5.416,10 -15.833,25 -22.916,33.75c-7.5,8.334 -19.584,27.084 -27.084,41.25c-7.083,14.167 -21.25,36.25 -30.833,49.167c-25.417,34.167 -29.583,42.083 -46.667,83.333c-9.583,24.584 -15,30.417 -50.833,57.084c-16.667,12.083 -33.75,25.416 -37.917,29.583c-4.166,3.75 -20,19.167 -35,33.75c-15.416,14.167 -27.916,28.75 -27.916,32.083c-0,4.584 -1.667,5 -7.917,1.667c-7.917,-4.167 -145.833,-40.833 -167.083,-44.583c-58.75,-10 -152.917,-12.5 -195.834,-5c-12.5,2.083 -27.916,4.583 -33.75,5.833c-42.5,7.5 -184.166,52.917 -195.833,62.917c-7.917,7.083 -30.417,5.416 -37.917,1.25c-5.416,-2.917 -63.018,-6.166 -67.5,-11.667c-3.471,-4.26 -26.297,-7.262 -71.372,-7.86c-0.678,-0.008 -1.075,-0.076 -1.149,-0.094c-0.334,-0.077 -5.843,1.353 -14.574,2.799c-42.081,6.965 -114.41,24.577 -115.405,25.572c-5.833,6.25 -62.916,16.666 -66.666,12.5c-1.25,-1.25 -20,-6.667 -41.667,-12.084c-21.667,-5.416 -69.583,-18.75 -106.25,-29.583c-80,-23.75 -139.583,-37.917 -187.5,-44.583c-21.25,-3.334 -124.167,-3.334 -145.833,-0.417c-54.167,7.5 -191.667,70 -195.417,70c-3.75,-0 -88.333,-2.083 -104.583,-4.167c-15.834,2.917 -77.917,12.917 -110.417,12.917c-21.667,-0.417 -44.167,-1.25 -50,-2.083c-5.833,-0.834 -24.583,-2.917 -41.667,-4.167c-17.083,-1.667 -55.416,-5.417 -85.416,-8.75c-29.584,-2.917 -69.167,-6.667 -87.5,-8.333c-59.584,-4.584 -90.417,-8.75 -115.417,-15l-15.833,-4.167l14.166,-22.5l-22.5,20l-0.416,-14.167c-0.417,-12.916 -0.834,-13.333 -3.75,-3.75c-2.917,8.75 -3.334,9.167 -3.75,2.084c-0.417,-4.584 -2.5,-11.25 -5,-14.584c-3.334,-5 -4.167,-5 -3.334,2.084c1.25,15 -0.833,16.666 -7.083,6.25c-6.25,-10.417 -6.25,-10.417 -3.75,4.166c2.083,10.834 1.667,12.917 -1.667,8.334c-3.333,-4.167 -5.416,-4.584 -7.5,-1.667c-2.5,2.917 -15,1.667 -40.833,-3.75l-37.917,-7.917l2.917,-32.083c2.917,-30.417 6.667,-42.5 30.417,-98.333c6.666,-16.25 10.833,-32.917 10.833,-47.084c-0,-28.333 6.667,-40.833 36.25,-67.5c22.083,-19.583 25.417,-21.25 38.75,-18.75c7.917,1.667 16.25,5.417 17.917,8.75c1.666,3.334 7.083,5.834 11.25,5.834c15.416,-0 30,10 38.333,26.25c6.667,13.333 10,15.833 17.917,14.583c7.5,-1.667 12.916,2.083 25,16.25c25,30 32.083,32.083 109.583,31.25c45.417,-0.417 67.083,0.833 65.417,3.75c-1.667,2.083 2.083,7.917 7.916,12.5c9.167,7.083 10.834,11.667 10.834,30.833c-0,23.75 3.333,29.167 16.25,25c12.083,-3.75 20,-29.166 23.333,-76.666l2.917,-43.334l-24.584,2.917c-13.333,1.25 -32.5,3.75 -42.5,5c-10.416,1.667 -36.25,-0.417 -61.666,-5c-40.417,-6.667 -44.167,-8.333 -55,-21.25c-17.5,-21.25 -42.917,-93.333 -46.25,-131.667c-2.5,-27.916 -4.584,-34.583 -15,-45.833c-14.167,-15.417 -30.834,-44.583 -30.834,-54.583c0,-3.75 10.834,-22.917 24.584,-43.334c39.166,-58.75 40.833,-63.333 22.5,-81.25c-10,-9.166 -55.834,-31.25 -81.25,-39.166c-4.167,-1.25 -7.5,-5.834 -7.5,-10c-0,-13.334 7.916,-12.917 16.666,1.25c7.917,13.333 8.334,13.333 8.334,3.333l0.416,-10.417l11.667,20.834l0.833,-10.417c0.417,-9.583 0.834,-9.583 3.75,2.083l2.917,12.5l4.167,-10.416l4.583,-10.417l7.083,15.417c4.167,8.333 10.417,16.25 14.167,17.5c3.75,1.25 9.583,3.75 12.917,5c4.166,2.083 3.75,-0 -1.667,-6.25c-8.333,-9.167 -8.333,-9.167 -0,-6.25c7.083,2.916 7.5,2.5 1.667,-4.584c-5.834,-7.083 -5.834,-7.5 2.916,-2.916c5,2.916 12.5,5 16.667,4.583c6.25,-0 5.833,-0.833 -2.083,-4.583c-5.834,-2.917 -8.75,-7.084 -7.084,-10.834c1.25,-3.333 -1.25,-8.75 -6.25,-12.083c-4.583,-3.333 -8.333,-10.417 -8.333,-15.833c-0,-6.25 -4.583,-13.334 -12.917,-18.75c-6.666,-5 -17.5,-17.084 -23.333,-26.667c-5.833,-9.167 -14.583,-20.417 -19.583,-24.167c-9.584,-7.916 -29.584,-10 -33.75,-3.333c-1.25,2.083 -12.5,4.167 -24.584,4.167c-14.583,-0 -24.166,2.083 -27.5,6.25c-2.916,3.333 -8.333,6.25 -12.5,6.25c-4.166,-0 -11.666,3.75 -17.083,7.916c-9.167,7.5 -9.583,8.75 -4.583,27.084c2.5,10.833 5,25.416 5,32.5c-0,16.25 19.166,45 29.583,45c10.417,-0 10,2.916 -4.167,40.833c-17.916,47.5 -18.333,48.333 -10.416,75.833c3.75,13.75 6.25,25.834 5,27.084c-2.5,2.5 -45,-17.917 -45,-22.084c-0,-4.166 -27.084,-17.5 -35.834,-17.5c-5,0 -5.833,4.167 -5,19.584l1.25,20l22.917,9.166c12.5,5 34.583,14.167 48.75,20.834c25.417,11.25 26.25,12.083 26.25,27.5c-0,13.333 -2.917,18.75 -19.583,34.583c-10.417,10.417 -24.584,25.833 -31.25,34.167c-9.584,12.083 -15.417,15.416 -27.5,16.25c-8.334,0.416 -23.334,2.916 -33.334,5.833c-9.583,2.5 -18.333,4.167 -19.166,3.333c-7.084,-9.166 -15.417,-63.333 -15.417,-103.75c-0.833,-71.666 -0.417,-72.5 50.833,-107.916c29.584,-20.834 49.584,-43.75 49.584,-56.667c-0,-12.917 -29.584,-44.167 -52.5,-55.417c-9.584,-5 -20,-13.333 -23.75,-19.166c-4.167,-6.25 -14.584,-12.5 -24.584,-15.834c-10,-2.916 -28.75,-13.333 -41.666,-23.75c-21.667,-16.666 -23.334,-18.75 -16.667,-23.75c5.833,-4.583 7.917,-4.166 12.917,2.5c6.666,9.584 21.25,11.25 21.25,2.5c-0,-3.333 -3.75,-8.75 -8.75,-12.083c-7.5,-5.417 -7.917,-7.917 -4.584,-21.25c12.084,-43.75 -30.416,-79.167 -72.083,-60c-11.667,5 -22.917,22.5 -22.917,35.417c0,4.166 -2.916,10.833 -5.833,15c-3.75,5 -5,13.333 -3.75,24.166c2.083,14.167 1.25,16.25 -5.833,16.25c-16.667,0 -26.667,17.917 -31.667,54.584c-3.333,28.75 -3.333,35.416 1.667,38.333c4.583,2.917 5.416,11.25 3.333,38.75c-1.667,27.917 -3.75,36.667 -11.25,44.583c-10.833,11.25 -12.5,36.667 -2.917,44.584c10.417,8.333 22.5,1.25 25.417,-15.834c9.583,-52.5 22.083,-25.833 25.417,53.334c1.25,30.833 2.5,62.916 2.5,70.833c0.416,13.75 -22.5,79.583 -30.834,90c-7.083,8.75 -16.25,45.417 -16.25,66.25c0,11.667 -4.583,37.083 -10,56.25c-5.416,19.583 -11.25,42.083 -12.916,50c-3.75,19.167 -18.75,45.833 -25.834,45.833c-2.916,0 -12.916,4.167 -22.5,9.167c-14.583,7.5 -19.166,8.333 -30.416,4.167c-17.5,-6.667 -21.667,-6.25 -29.167,1.666c-6.25,5.834 -14.583,5 -97.5,-8.333c-49.583,-7.917 -106.25,-16.667 -125.833,-18.75c-47.084,-5.833 -88.334,-4.583 -155.417,-4.583c-46.25,0.416 -94.583,1.25 -107.083,2.5c-12.5,1.25 -35,2.5 -50,3.333c-15,0.833 -47.5,4.583 -72.917,8.333c-25,3.75 -52.5,7.5 -60.417,8.75c-7.916,1.25 -46.25,7.084 -85.416,12.917c-38.75,5.833 -85,11.667 -102.084,12.5c-77.5,5 -222.916,14.583 -244.583,16.667c-27.5,2.083 -100.417,9.166 -134.583,12.5c-57.084,5.833 -111.25,15 -157.084,26.25c-27.083,6.666 -55.833,13.333 -63.75,14.583l-14.166,2.5l17.083,-12.5c68.75,-50.833 85.417,-170.833 34.167,-250.833c-36.667,-57.084 -111.667,-92.5 -179.167,-84.584c-22.083,2.5 -23.75,2.084 -25.833,-7.083c-4.584,-17.083 -3.334,-24.167 7.5,-35c7.083,-7.083 10,-13.333 8.333,-18.333c-4.167,-13.334 6.25,-13.75 17.5,-0.417c13.333,15 22.917,16.25 42.083,4.583c17.5,-10.833 20.417,-18.75 11.667,-33.333c-8.75,-15 -8.75,-14.583 7.5,-24.167l14.167,-8.333l5.416,21.25c9.584,35 14.584,28.333 13.334,-17.917c-0.417,-22.916 -2.084,-43.75 -3.334,-45.833c-4.583,-7.083 -15.416,-4.583 -25.416,6.25c-8.75,9.583 -12.084,10.417 -45,9.583l-35.417,-0.833l-9.583,-20.833c-8.334,-18.334 -9.584,-27.917 -9.167,-67.084c0.417,-41.25 1.25,-47.5 10.417,-60.833c5.416,-8.333 12.083,-18.75 14.583,-22.917c4.167,-6.25 5.833,-7.083 10.417,-2.916c10,10 24.166,5.833 40.833,-11.25c8.75,-9.167 18.333,-16.667 20.833,-16.667c2.5,-0 4.584,-3.333 4.584,-7.917c-0,-14.583 12.083,-36.666 21.25,-39.166c7.916,-2.084 8.333,-4.167 5.833,-20.417c-6.667,-40.833 -29.167,-62.917 -70.417,-67.917c-11.666,-1.25 -28.333,-3.333 -37.083,-4.583c-15,-2.5 -15.833,-1.667 -22.083,13.333Zm2150.42,84.584c1.25,2.083 0.417,5 -2.083,6.666c-2.083,1.25 -4.167,-0.416 -4.167,-3.75c0,-7.5 2.5,-8.75 6.25,-2.916Zm-2210.42,147.5c-4.584,32.5 -4.167,37.083 3.333,54.166c4.583,10.417 13.333,25.834 19.167,34.584c11.666,17.5 10.833,22.5 -4.167,22.5c-11.667,-0 -22.917,-15.834 -33.333,-47.5c-6.25,-17.917 -6.25,-25 -2.084,-54.167c4.584,-28.75 14.584,-52.083 20,-46.667c0.834,0.834 -0.416,17.5 -2.916,37.084Zm-72.084,-2.917c-0.833,15 -3.333,28.333 -5,30c-2.5,2.917 -39.166,-35.833 -39.583,-42.083c-0,-4.584 25,-15 37.083,-15.417c9.584,-0 10,0.833 7.5,27.5Zm2103.75,-7.917c5.417,-0.833 10,0 10,2.084c0,11.25 -55,66.25 -60.416,60.833c-1.25,-1.25 1.666,-12.917 5.833,-26.667c4.583,-13.333 9.167,-30 10.833,-36.25c2.5,-11.666 2.5,-12.083 13.334,-5c5.833,3.75 15,6.25 20.416,5Zm219.584,20.417c-3.334,8.75 -9.584,7.083 -9.584,-2.5c0,-5.417 2.084,-7.5 5.834,-5.833c3.333,1.25 5,5 3.75,8.333Zm-2489.17,87.083c12.5,19.584 32.083,45.834 43.333,58.334c18.334,20.833 19.584,22.916 10.417,22.916c-5.417,0 -22.083,1.25 -37.083,2.5l-27.917,2.917l-17.083,-52.917c-9.584,-29.166 -17.084,-54.166 -17.084,-56.25c0,-2.916 15,-12.083 20.834,-12.5c1.25,0 12.083,15.834 24.583,35Zm217.917,59.167c3.333,4.167 2.083,5.417 -4.167,5.417c-6.25,-0 -10,-5 -15,-19.584c-8.75,-25.416 -8.333,-25.833 4.167,-7.083c6.25,8.75 12.916,18.75 15,21.25Zm17.5,49.583c3.75,3.334 6.666,7.5 6.666,8.334c0,2.083 -57.916,76.25 -67.5,87.083c-1.666,2.083 -0.416,-5.417 2.917,-16.667c3.333,-11.666 7.5,-25.416 8.75,-31.25c1.667,-5.833 7.5,-20.416 12.917,-32.5c11.25,-23.333 23.333,-28.333 36.25,-15Zm-201.667,3.334c-0,2.916 -33.333,23.333 -33.333,20.416c-0,-2.083 -1.25,-7.5 -2.5,-12.916c-2.5,-8.334 -1.25,-9.167 16.666,-9.167c10.417,-0 19.167,0.833 19.167,1.667Zm-57.5,65.833c-7.5,11.667 -7.917,11.667 -15,3.75c-6.667,-7.5 -6.667,-8.75 2.5,-27.083l9.167,-19.584l5.416,15.417c4.584,13.75 4.584,17.083 -2.083,27.5Zm134.167,-16.667c-3.334,14.584 -5.834,38.334 -5.834,52.917c0,14.583 -3.75,42.917 -8.75,63.333l-8.333,36.667l-13.333,-2.5c-7.5,-1.25 -14.584,-4.583 -16.25,-6.667c-1.25,-2.5 -8.75,-25.416 -16.25,-51.666l-13.334,-47.5l17.917,-15.417c14.167,-12.083 67.5,-54.583 69.167,-55c-0,-0 -2.084,11.667 -5,25.833Zm130.416,37.084c-35,36.25 -56.25,90.416 -52.083,132.916l1.25,15.417l-11.667,-12.083c-6.666,-6.25 -13.333,-11.667 -15,-11.667c-1.666,-0 -6.25,-6.667 -10,-15l-7.5,-15l20,-23.75c30,-35.417 94.584,-101.25 95.834,-97.5c0.833,2.083 -8.75,14.167 -20.834,26.667Zm1940.83,-11.25c10.833,18.75 37.083,44.166 45.416,44.166c2.917,0 15.417,-3.75 28.75,-8.333c12.917,-4.583 25,-8.333 27.084,-8.333c5.416,-0 1.25,38.75 -7.917,75.833c-4.167,17.5 -7.917,40.833 -8.333,52.083c-0.417,30 -8.75,61.667 -16.25,61.667c-3.334,-0 -11.667,3.75 -17.917,7.917c-11.25,7.5 -12.5,7.5 -26.667,0.833c-27.916,-13.333 -41.666,4.167 -19.583,24.583c13.75,12.5 9.583,13.75 -7.083,1.667c-8.75,-5.833 -12.084,-7.083 -12.5,-2.917c-0,4.167 -0.834,4.167 -2.5,-0.416c-1.667,-4.167 -2.917,-4.584 -5.417,-0.417c-2.5,4.167 -14.167,4.167 -57.917,-0c-30.416,-2.917 -55.833,-7.083 -57.083,-9.167c-1.25,-1.666 11.25,-27.083 27.5,-55.833c36.25,-64.167 41.667,-78.333 41.667,-112.5l-0,-26.25l27.5,-31.667c15,-17.083 27.916,-31.25 28.75,-31.25c0.833,0 6.666,8.334 12.5,18.334Zm-2285.83,-1.25c7.084,2.5 12.917,5.416 12.917,6.666c-0,1.25 -17.917,34.584 -39.583,74.167c-21.667,39.583 -39.584,75.833 -39.584,80.417c0,10.416 14.584,21.666 27.917,21.666c5,0 12.917,-3.75 17.083,-8.333l7.917,-8.75l57.917,11.667c31.666,6.25 58.75,11.666 59.583,12.083c0.417,0.833 -3.333,11.25 -9.167,23.75c-13.333,29.583 -34.583,52.5 -62.083,67.917c-19.583,10.833 -25.833,12.083 -57.5,12.083c-27.083,-0.417 -40,-2.5 -55.417,-9.583c-30.416,-13.75 -57.916,-42.084 -74.166,-76.667c-12.917,-27.917 -14.167,-33.75 -14.167,-70c-0,-36.667 1.25,-42.083 13.75,-67.5c16.25,-32.917 42.083,-57.5 70.417,-67.083c23.333,-7.917 65.416,-9.167 84.166,-2.5Zm523.75,9.583c28.75,13.333 56.25,41.667 73.334,76.667c12.5,25.416 13.75,30.833 13.75,67.5c-0,35.833 -1.25,42.083 -13.334,67.5c-25.833,55 -70.416,84.583 -126.25,84.166c-24.583,0 -36.25,-2.5 -55.416,-11.25c-30.417,-13.75 -61.667,-45.833 -79.167,-81.666c-12.5,-25.417 -13.333,-30 -13.333,-71.25c-0,-46.667 4.583,-61.25 30,-94.584c15.833,-20.833 20.833,-20.416 32.916,4.167c6.25,12.083 22.084,40 35.417,62.083c13.75,22.5 24.583,43.334 24.583,47.084c0,3.333 4.584,8.333 10.417,11.25c7.917,3.75 12.083,3.333 20.833,-2.5c16.667,-10.834 12.084,-35.834 -7.083,-35.834c-5.417,0 -7.5,-3.333 -7.5,-12.5c-0,-7.5 -10.833,-33.333 -25,-61.25c-14.167,-26.666 -23.75,-50 -22.083,-51.666c15.416,-14.584 73.75,-13.334 107.916,2.083Zm-470.833,15.833c2.917,4.167 -18.75,25.834 -22.5,22.084c-2.5,-2.5 11.667,-27.084 15.833,-27.084c2.084,0 5,2.084 6.667,5Zm47.083,70.834c7.084,24.166 9.584,40.833 5.417,40.833c-7.917,-0 -13.75,-12.083 -16.25,-32.917c-2.917,-24.583 3.75,-29.166 10.833,-7.916Zm-79.166,14.166c9.166,11.667 15,26.25 11.666,29.584c-1.25,0.833 -10.833,-1.667 -21.25,-6.667l-19.166,-8.333l7.5,-12.5c8.75,-15.834 10.416,-15.834 21.25,-2.084Zm-49.584,18.334c-2.5,4.583 -5.416,8.333 -6.666,8.333c-0.834,-0 -0,-3.75 2.5,-8.333c2.5,-4.584 5.416,-8.334 6.666,-8.334c0.834,0 0,3.75 -2.5,8.334Zm329.167,68.75c-0,9.166 22.5,51.25 38.333,71.666c19.584,25.417 59.584,53.75 81.667,57.917c33.333,6.25 -4.167,9.583 -119.167,9.583c-108.75,0.417 -121.666,-0.416 -168.75,-9.583c-45.416,-9.167 -76.666,-14.583 -87.916,-15c-2.5,-0 4.166,-5.417 14.583,-11.667c25.833,-16.666 56.667,-52.083 64.583,-75.416l7.084,-19.167l13.333,13.333c11.667,11.667 16.667,13.75 33.333,13.75c17.5,0 21.667,-2.083 34.167,-15c12.917,-13.75 15.417,-15 24.583,-10.416c5.834,2.5 15.417,4.583 21.25,4.583c8.75,-0 10.417,-1.667 8.75,-9.583c-1.666,-8.334 0,-9.167 16.25,-9.167c10,-0 17.917,1.667 17.917,4.167Z" style="fill-rule:nonzero;"/></g></svg>