<svg width="500" height="500" viewBox="0 0 500 500" fill="none" xmlns="http://www.w3.org/2000/svg">
<mask id="mask0_73_611" style="mask-type:luminance" maskUnits="userSpaceOnUse" x="22" y="232" width="131" height="74">
<path d="M22.6665 232H153V305.333H22.6665V232Z" fill="white"/>
</mask>
<g mask="url(#mask0_73_611)">
<path fill-rule="evenodd" clip-rule="evenodd" d="M26.5728 246.365C35.6093 280.51 70.6926 300.859 104.932 291.885C130.719 285.099 148.703 263.609 152.151 238.849C153.203 268.057 133.937 295.13 104.375 302.875C70.1406 311.88 35.052 291.505 26.0208 257.354C23.7968 248.906 23.3593 240.427 24.4999 232.302C24.6458 236.948 25.3489 241.687 26.5728 246.365Z" fill="black" fill-opacity="0.25"/>
</g>
<path fill-rule="evenodd" clip-rule="evenodd" d="M96.2501 181.313C62.0679 172.047 26.8387 192.13 17.5106 226.188C10.4949 251.828 20.2033 278.083 39.9949 293.432C14.0887 279.75 0.203269 249.578 8.24494 220.198C17.5679 186.135 52.8022 166.052 86.9793 175.318C95.4324 177.599 103.031 181.49 109.521 186.516C105.401 184.354 100.953 182.568 96.2501 181.313Z" fill="black" fill-opacity="0.25"/>
<path fill-rule="evenodd" clip-rule="evenodd" d="M117.974 273.99C143.114 249.141 143.292 208.677 118.354 183.594C99.5519 164.734 71.8957 159.969 48.6509 169.385C73.4998 153.891 106.656 156.99 128.177 178.594C153.114 203.651 152.969 244.109 127.797 268.99C121.568 275.13 114.406 279.75 106.776 282.849C110.75 280.333 114.495 277.412 117.974 273.99Z" fill="black" fill-opacity="0.25"/>
<path fill-rule="evenodd" clip-rule="evenodd" d="M120.807 258.641C120.807 258.641 126.567 249.755 126.656 239.229C126.771 228.703 119.698 222.182 114.609 226.307C114.198 226.656 127.823 231.948 120.807 258.641ZM88.1508 268.729C112.531 262.328 117.974 235.781 97.4164 231.776C98.7342 230.604 100.312 229.729 102.125 229.26C103.646 228.849 105.192 228.792 106.656 228.995C107.739 225.255 110.719 222.156 114.786 221.104C120.927 219.495 127.213 223.151 128.849 229.26C134.344 250.047 117.182 274.75 92.5935 280.479C66.1925 286.651 39.5258 271.771 32.5987 245.63C29.2654 233.031 31.1925 220.255 37.0154 209.672C33.3279 218.24 32.3644 228.089 34.9373 237.797C41.0467 261.01 64.8748 274.839 88.1508 268.729Z" fill="black" fill-opacity="0.25"/>
<path fill-rule="evenodd" clip-rule="evenodd" d="M126.567 220.021C126.567 220.021 122.505 205.052 110.021 203.385C102.182 202.333 102.771 207.74 105.047 210.109C109.432 214.698 119.114 209.115 126.567 220.021Z" fill="black" fill-opacity="0.25"/>
<path fill-rule="evenodd" clip-rule="evenodd" d="M103.646 225.547C89.9321 218.588 81.7446 227.271 85.1977 228.823C86.9216 229.609 89.906 228.646 92.0675 227.682C95.6612 226.104 99.8748 225.198 103.646 225.547Z" fill="black" fill-opacity="0.25"/>
<path fill-rule="evenodd" clip-rule="evenodd" d="M109.115 218.734C89.3179 203.797 73.8804 215.255 78.8804 218.734C81.396 220.49 86.4272 219.76 90.1356 218.854C96.2762 217.359 103.208 217.099 109.115 218.734Z" fill="black" fill-opacity="0.25"/>
<path d="M194.065 215.932C197.19 215.932 199.841 215.536 202.023 214.745C204.216 213.953 206.013 212.865 207.419 211.474C208.82 210.073 209.835 208.432 210.46 206.557C211.096 204.682 211.419 202.656 211.419 200.474C211.419 196.141 210.002 192.76 207.169 190.328C204.346 187.885 199.981 186.661 194.065 186.661H184.856V215.932H194.065ZM242.731 268.245H221.981C218.148 268.245 215.398 266.802 213.731 263.911L197.315 235.245C196.549 234.026 195.695 233.135 194.752 232.578C193.804 232.01 192.45 231.724 190.69 231.724H184.856V268.245H161.96V169.516H194.065C201.2 169.516 207.283 170.255 212.315 171.724C217.356 173.198 221.466 175.245 224.648 177.87C227.841 180.484 230.158 183.573 231.606 187.141C233.049 190.714 233.773 194.594 233.773 198.786C233.773 201.995 233.341 205.026 232.481 207.87C231.632 210.719 230.367 213.349 228.69 215.766C227.023 218.182 224.95 220.344 222.481 222.245C220.023 224.135 217.195 225.693 214.002 226.911C215.486 227.677 216.882 228.635 218.19 229.786C219.507 230.943 220.679 232.307 221.71 233.891L242.731 268.245Z" fill="black" fill-opacity="0.25"/>
<path d="M303.229 230.495L294.083 203.474C293.4 201.755 292.676 199.734 291.916 197.411C291.15 195.078 290.38 192.557 289.604 189.849C288.921 192.599 288.197 195.156 287.437 197.516C286.671 199.865 285.947 201.891 285.27 203.599L276.187 230.495H303.229ZM339.624 268.245H321.854C319.864 268.245 318.26 267.786 317.041 266.87C315.833 265.943 314.906 264.755 314.27 263.307L308.437 246.078H270.916L265.083 263.307C264.583 264.573 263.687 265.714 262.395 266.724C261.114 267.74 259.525 268.245 257.624 268.245H239.729L277.958 169.516H301.395L339.624 268.245Z" fill="black" fill-opacity="0.25"/>
<path d="M401.955 189.578C401.273 190.662 400.56 191.474 399.81 192.016C399.07 192.557 398.112 192.828 396.935 192.828C395.893 192.828 394.773 192.505 393.58 191.849C392.382 191.198 391.028 190.469 389.518 189.662C388.002 188.844 386.273 188.109 384.33 187.453C382.382 186.787 380.169 186.453 377.685 186.453C373.393 186.453 370.195 187.37 368.101 189.203C366.002 191.037 364.955 193.51 364.955 196.62C364.955 198.609 365.586 200.26 366.851 201.578C368.112 202.885 369.773 204.01 371.83 204.953C373.882 205.901 376.231 206.766 378.872 207.557C381.523 208.349 384.226 209.234 386.976 210.203C389.726 211.177 392.419 212.323 395.06 213.641C397.711 214.948 400.065 216.62 402.122 218.662C404.174 220.693 405.836 223.162 407.101 226.078C408.362 228.984 408.997 232.49 408.997 236.599C408.997 241.172 408.205 245.443 406.622 249.412C405.039 253.386 402.747 256.849 399.747 259.807C396.747 262.766 393.044 265.094 388.643 266.787C384.237 268.479 379.231 269.328 373.622 269.328C370.549 269.328 367.424 269.005 364.247 268.37C361.065 267.745 357.981 266.859 354.997 265.703C352.007 264.552 349.205 263.182 346.58 261.599C343.966 260.016 341.69 258.261 339.747 256.328L346.518 245.62C347.06 244.844 347.768 244.198 348.643 243.682C349.528 243.172 350.497 242.912 351.539 242.912C352.898 242.912 354.268 243.344 355.643 244.203C357.018 245.052 358.57 245.995 360.31 247.037C362.044 248.078 364.044 249.031 366.31 249.891C368.57 250.74 371.237 251.162 374.31 251.162C378.461 251.162 381.69 250.255 383.997 248.432C386.299 246.599 387.455 243.698 387.455 239.724C387.455 237.422 386.82 235.547 385.56 234.099C384.294 232.656 382.632 231.464 380.58 230.516C378.523 229.557 376.185 228.719 373.56 227.995C370.935 227.276 368.247 226.474 365.497 225.599C362.747 224.714 360.06 223.63 357.435 222.349C354.81 221.057 352.466 219.365 350.414 217.266C348.356 215.156 346.695 212.531 345.435 209.391C344.169 206.255 343.539 202.38 343.539 197.766C343.539 194.073 344.278 190.464 345.768 186.932C347.268 183.406 349.461 180.266 352.351 177.516C355.237 174.755 358.778 172.552 362.976 170.912C367.185 169.26 371.997 168.432 377.414 168.432C380.44 168.432 383.382 168.672 386.247 169.141C389.122 169.615 391.841 170.318 394.414 171.245C396.997 172.177 399.403 173.287 401.643 174.578C403.877 175.859 405.877 177.307 407.643 178.932L401.955 189.578Z" fill="black" fill-opacity="0.25"/>
<path d="M493.427 187.682H465.635V268.245H442.74V187.682H414.969V169.516H493.427V187.682Z" fill="black" fill-opacity="0.25"/>
<path d="M178.359 300.294V303.107H165.525V285.336H178.088V288.127H169.088V292.815H177.442V295.607H169.088V300.294H178.359Z" fill="black" fill-opacity="0.25"/>
<path d="M194.221 300.148V303.107H181.388V285.336H184.95V300.148H194.221Z" fill="black" fill-opacity="0.25"/>
<path d="M209.774 300.294V303.107H196.94V285.336H209.503V288.127H200.503V292.815H208.857V295.607H200.503V300.294H209.774Z" fill="black" fill-opacity="0.25"/>
<path d="M222.073 303.107H217.615L211.344 285.336H215.198L219.907 300.377L224.698 285.336H228.49L222.073 303.107Z" fill="black" fill-opacity="0.25"/>
<path d="M240.143 297.752H234.185L232.393 303.107H228.623L235.018 285.336H239.477L245.768 303.107H241.893L240.143 297.752ZM237.185 288.377L235.081 294.94H239.248L237.185 288.377Z" fill="black" fill-opacity="0.25"/>
<path d="M261.821 288.127H255.8V303.107H252.258V288.127H246.217V285.336H261.821V288.127Z" fill="black" fill-opacity="0.25"/>
<path d="M276.801 300.294V303.107H263.968V285.336H276.53V288.127H267.53V292.815H275.884V295.607H267.53V300.294H276.801Z" fill="black" fill-opacity="0.25"/>
<path d="M285.725 284.982C287.751 284.982 289.298 285.492 290.371 286.502C291.439 287.518 292.079 288.872 292.288 290.565H288.663C288.564 289.638 288.251 288.914 287.725 288.398C287.21 287.888 286.501 287.627 285.6 287.627C284.861 287.627 284.257 287.81 283.788 288.169C283.329 288.534 283.1 289.06 283.1 289.752C283.1 290.502 283.376 291.096 283.934 291.523C284.486 291.956 285.475 292.331 286.892 292.648C288.819 293.096 290.246 293.773 291.163 294.69C292.09 295.596 292.559 296.768 292.559 298.211C292.559 299.825 291.918 301.101 290.642 302.044C289.376 302.992 287.819 303.461 285.975 303.461C283.819 303.461 282.1 302.992 280.809 302.044C279.517 301.086 278.788 299.69 278.621 297.857H282.246C282.439 298.804 282.871 299.534 283.538 300.044C284.204 300.56 285.001 300.815 285.934 300.815C286.751 300.815 287.439 300.617 287.996 300.211C288.564 299.794 288.85 299.247 288.85 298.565C288.85 297.815 288.579 297.211 288.038 296.752C287.496 296.284 286.579 295.893 285.288 295.586C283.298 295.101 281.814 294.461 280.829 293.669C279.855 292.877 279.371 291.721 279.371 290.19C279.371 288.607 279.986 287.346 281.225 286.398C282.46 285.456 283.96 284.982 285.725 284.982Z" fill="black" fill-opacity="0.25"/>
<path d="M309.21 285.461C310.637 285.617 311.793 286.164 312.668 287.107C313.554 288.039 314.002 289.294 314.002 290.877C314.002 292.435 313.543 293.685 312.627 294.627C311.721 295.56 310.585 296.107 309.21 296.273C308.471 296.372 307.611 296.419 306.627 296.419H304.043V303.107H300.481V285.336H306.627C307.627 285.336 308.486 285.377 309.21 285.461ZM308.148 293.523C309.564 293.315 310.273 292.435 310.273 290.877C310.273 289.31 309.564 288.429 308.148 288.232C307.757 288.179 307.236 288.148 306.585 288.148H304.043V293.607H306.585C307.236 293.607 307.757 293.58 308.148 293.523Z" fill="black" fill-opacity="0.25"/>
<path d="M329.356 300.294V303.107H316.523V285.336H329.085V288.127H320.085V292.815H328.44V295.607H320.085V300.294H329.356Z" fill="black" fill-opacity="0.25"/>
<path d="M345.26 298.627C345.479 300.742 345.911 302.232 346.552 303.107H342.656C342.224 301.929 341.932 300.607 341.781 299.148C341.542 297.138 340.745 296.08 339.385 295.982C339.062 295.955 338.599 295.94 337.989 295.94H335.948V303.107H332.385V285.336H338.864C339.849 285.336 340.708 285.377 341.448 285.461C342.849 285.643 343.974 286.117 344.823 286.877C345.682 287.643 346.114 288.747 346.114 290.19C346.114 291.304 345.802 292.226 345.177 292.961C344.562 293.685 343.719 294.2 342.635 294.502C344.161 295.086 345.036 296.461 345.26 298.627ZM335.948 293.294H338.385C339.094 293.294 339.573 293.289 339.823 293.273C341.531 293.122 342.385 292.268 342.385 290.711C342.385 289.909 342.177 289.315 341.76 288.94C341.354 288.554 340.781 288.304 340.031 288.19C339.614 288.148 339.114 288.127 338.531 288.127H335.948V293.294Z" fill="black" fill-opacity="0.25"/>
<path d="M352.788 288.127V292.815H360.892V295.607H352.788V303.107H349.226V285.336H361.788V288.127H352.788Z" fill="black" fill-opacity="0.25"/>
<path d="M372.308 284.982C375.016 284.982 377.152 285.825 378.724 287.502C380.292 289.169 381.079 291.414 381.079 294.232C381.079 297.023 380.292 299.263 378.724 300.94C377.152 302.622 375.006 303.461 372.287 303.461C369.579 303.461 367.438 302.622 365.87 300.94C364.297 299.263 363.516 297.023 363.516 294.232C363.516 291.414 364.292 289.169 365.849 287.502C367.417 285.825 369.568 284.982 372.308 284.982ZM368.579 299.086C369.48 300.242 370.714 300.815 372.287 300.815C373.87 300.815 375.105 300.232 375.995 299.065C376.896 297.898 377.349 296.289 377.349 294.232C377.349 292.148 376.896 290.534 375.995 289.377C375.105 288.211 373.875 287.627 372.308 287.627C370.709 287.627 369.459 288.211 368.558 289.377C367.667 290.534 367.224 292.148 367.224 294.232C367.224 296.304 367.672 297.919 368.579 299.086Z" fill="black" fill-opacity="0.25"/>
<path d="M397.069 298.627C397.288 300.742 397.72 302.232 398.361 303.107H394.465C394.032 301.929 393.741 300.607 393.59 299.148C393.35 297.138 392.553 296.08 391.194 295.982C390.871 295.955 390.407 295.94 389.798 295.94H387.756V303.107H384.194V285.336H390.673C391.657 285.336 392.517 285.377 393.256 285.461C394.657 285.643 395.782 286.117 396.631 286.877C397.491 287.643 397.923 288.747 397.923 290.19C397.923 291.304 397.611 292.226 396.986 292.961C396.371 293.685 395.527 294.2 394.444 294.502C395.97 295.086 396.845 296.461 397.069 298.627ZM387.756 293.294H390.194C390.902 293.294 391.381 293.289 391.631 293.273C393.34 293.122 394.194 292.268 394.194 290.711C394.194 289.909 393.986 289.315 393.569 288.94C393.163 288.554 392.59 288.304 391.84 288.19C391.423 288.148 390.923 288.127 390.34 288.127H387.756V293.294Z" fill="black" fill-opacity="0.25"/>
<path d="M420.201 285.336V303.107H416.638V294.898C416.638 292.08 416.649 290.054 416.68 288.815C416.206 290.872 415.659 292.888 415.034 294.857L412.534 303.107H408.68L406.138 294.836C405.482 292.659 404.951 290.659 404.534 288.836C404.576 290.075 404.597 292.096 404.597 294.898V303.107H401.034V285.336H406.638L410.659 299.836L414.68 285.336H420.201Z" fill="black" fill-opacity="0.25"/>
<path d="M433.757 297.752H427.799L426.007 303.107H422.236L428.632 285.336H433.09L439.382 303.107H435.507L433.757 297.752ZM430.799 288.377L428.695 294.94H432.861L430.799 288.377Z" fill="black" fill-opacity="0.25"/>
<path d="M457.143 303.107H452.268L444.956 289.607C445.049 291.232 445.102 293.054 445.102 295.065V303.107H441.539V285.336H446.247L453.727 299.086C453.628 297.492 453.581 295.627 453.581 293.502V285.336H457.122L457.143 303.107Z" fill="black" fill-opacity="0.25"/>
<path d="M468.734 284.982C471.052 284.982 472.864 285.544 474.172 286.669C475.474 287.794 476.218 289.273 476.401 291.107L476.422 291.357H472.88L472.817 291.107C472.359 288.789 470.974 287.627 468.672 287.627C467.239 287.627 466.078 288.211 465.192 289.377C464.317 290.534 463.88 292.117 463.88 294.127C463.88 296.268 464.317 297.919 465.192 299.086C466.078 300.242 467.224 300.815 468.63 300.815C469.755 300.815 470.656 300.502 471.338 299.877C472.031 299.242 472.505 298.351 472.755 297.211L472.797 296.961H476.317L476.297 297.211C476.114 299.127 475.323 300.648 473.922 301.773C472.531 302.898 470.713 303.461 468.463 303.461C465.963 303.461 463.948 302.643 462.422 301.002C460.89 299.351 460.13 297.127 460.13 294.336C460.13 291.476 460.932 289.206 462.547 287.523C464.156 285.831 466.218 284.982 468.734 284.982Z" fill="black" fill-opacity="0.25"/>
<path d="M492.431 300.294V303.107H479.598V285.336H492.16V288.127H483.16V292.815H491.514V295.607H483.16V300.294H492.431Z" fill="black" fill-opacity="0.25"/>
</svg>