<svg width="87" height="85" viewBox="0 0 87 85" fill="none" xmlns="http://www.w3.org/2000/svg">
<path fill-rule="evenodd" clip-rule="evenodd" d="M15.9211 49.7508C20.8937 68.1214 40.2059 79.0687 59.0505 74.2396C73.2451 70.5908 83.1422 59.0308 85.0417 45.7089C85.6208 61.4215 75.015 75.9857 58.7451 80.1542C39.8996 84.9983 20.5883 74.0351 15.6148 55.6645C14.3923 51.1196 14.1503 46.558 14.7784 42.1858C14.859 44.6862 15.2451 47.2344 15.9211 49.7508Z" fill="black" fill-opacity="0.25"/>
<path fill-rule="evenodd" clip-rule="evenodd" d="M54.2708 14.7555C35.4579 9.7697 16.066 20.5744 10.9321 38.8981C7.06965 52.692 12.4129 66.8162 23.3078 75.0736C9.0489 67.7123 1.40469 51.4808 5.8299 35.6743C10.9638 17.3506 30.3567 6.54501 49.1695 11.5308C53.8204 12.758 58.0045 14.8493 61.577 17.5552C59.3086 16.3908 56.8618 15.4311 54.2708 14.7555Z" fill="black" fill-opacity="0.25"/>
<path fill-rule="evenodd" clip-rule="evenodd" d="M66.2289 64.6142C80.0683 51.2453 80.1653 29.4774 66.4374 15.9818C56.0898 5.83762 40.8657 3.27345 28.0713 8.33803C41.7502 0.00183702 60.0003 1.66908 71.845 13.2928C85.5729 26.7715 85.4922 48.5395 71.6356 61.9243C68.2082 65.2278 64.2651 67.7123 60.0646 69.3795C62.2532 68.0275 64.3131 66.4541 66.2289 64.6142Z" fill="black" fill-opacity="0.25"/>
<path fill-rule="evenodd" clip-rule="evenodd" d="M67.7895 56.3566C67.7895 56.3566 70.9595 51.5754 71.0085 45.9132C71.0728 40.2509 67.1777 36.7429 64.3774 38.9609C64.1527 39.1495 71.6519 41.997 67.7895 56.3566ZM49.8131 61.7825C63.2356 58.3382 66.2289 44.0573 54.9153 41.9022C55.6394 41.2727 56.5085 40.8017 57.5062 40.5493C58.3427 40.3297 59.1955 40.2978 60.0003 40.4076C60.5957 38.3951 62.2378 36.7278 64.4744 36.1612C67.8538 35.2961 71.3139 37.2626 72.2156 40.5493C75.2407 51.7321 65.7939 65.0231 52.26 68.1052C37.7273 71.4247 23.0506 63.4187 19.2362 49.3574C17.402 42.5787 18.4641 35.7052 21.6659 30.012C19.6386 34.6197 19.1075 39.9207 20.524 45.142C23.8871 57.6308 37.0033 65.07 49.8131 61.7825Z" fill="black" fill-opacity="0.25"/>
<path fill-rule="evenodd" clip-rule="evenodd" d="M70.9592 35.5795C70.9592 35.5795 68.7225 27.5267 61.8505 26.6297C57.5376 26.064 57.8593 28.9734 59.1145 30.2476C61.5287 32.717 66.8557 29.7128 70.9592 35.5795Z" fill="black" fill-opacity="0.25"/>
<path fill-rule="evenodd" clip-rule="evenodd" d="M58.3425 38.552C50.7953 34.8085 46.2885 39.4799 48.188 40.314C49.1368 40.7381 50.7789 40.2193 51.9698 39.7004C53.949 38.8513 56.2663 38.3634 58.3425 38.552Z" fill="black" fill-opacity="0.25"/>
<path fill-rule="evenodd" clip-rule="evenodd" d="M61.352 34.8872C50.4571 26.8503 41.9592 33.0155 44.7115 34.8872C46.0953 35.8311 48.8639 35.438 50.9075 34.9501C54.2869 34.1479 58.1013 34.0071 61.352 34.8872Z" fill="black" fill-opacity="0.25"/>
</svg>
