<svg width="80" height="80" viewBox="0 0 320 319" fill="none" xmlns="http://www.w3.org/2000/svg">
<path fill-rule="evenodd" clip-rule="evenodd" d="M59.7 184.847C77.8033 253.103 148.1 293.776 216.7 275.835C268.37 262.278 304.4 219.326 311.31 169.828C313.42 228.208 274.813 282.322 215.587 297.81C146.987 315.807 76.69 275.078 58.5866 206.818C54.1366 189.931 53.2566 172.981 55.5433 156.735C55.8333 166.03 57.24 175.497 59.7 184.847Z" fill="black" fill-opacity="0.25"/>
<path fill-rule="evenodd" clip-rule="evenodd" d="M199.303 54.8181C130.82 36.2929 60.2267 76.4403 41.5401 144.524C27.4801 195.773 46.9301 248.252 86.5901 278.932C34.6867 251.585 6.86008 191.274 22.9701 132.541C41.6567 64.4612 112.25 24.3137 180.73 42.839C197.663 47.3947 212.893 55.167 225.9 65.2188C217.637 60.8957 208.733 57.3302 199.303 54.8181Z" fill="black" fill-opacity="0.25"/>
<path fill-rule="evenodd" clip-rule="evenodd" d="M242.83 240.071C293.21 190.397 293.56 109.517 243.59 59.3772C205.924 21.6821 150.504 12.1586 103.93 30.9729C153.727 4.11367e-05 220.157 6.19728 263.274 49.3819C313.244 99.4649 312.95 180.345 262.514 230.079C250.034 242.35 235.68 251.585 220.39 257.779C228.36 252.751 235.857 246.909 242.83 240.071Z" fill="black" fill-opacity="0.25"/>
<path fill-rule="evenodd" clip-rule="evenodd" d="M248.51 209.39C248.51 209.39 260.053 191.626 260.227 170.585C260.463 149.548 246.283 136.516 236.09 144.756C235.27 145.457 262.57 156.034 248.51 209.39ZM183.073 229.551C231.933 216.754 242.83 163.69 201.647 155.685C204.28 153.346 207.447 151.595 211.077 150.658C214.123 149.84 217.227 149.724 220.157 150.133C222.323 142.653 228.3 136.459 236.443 134.356C248.747 131.139 261.34 138.446 264.62 150.658C275.633 192.208 241.247 241.589 191.98 253.044C139.08 265.375 85.6535 235.628 71.7701 183.385C65.0901 158.198 68.9568 132.661 80.6135 111.504C73.2335 128.627 71.3001 148.322 76.4568 167.724C88.7001 214.122 136.443 241.766 183.073 229.551Z" fill="black" fill-opacity="0.25"/>
<path fill-rule="evenodd" clip-rule="evenodd" d="M260.053 132.192C260.053 132.192 251.91 102.269 226.893 98.9399C211.193 96.8365 212.367 107.646 216.937 112.381C225.723 121.556 245.113 110.394 260.053 132.192Z" fill="black" fill-opacity="0.25"/>
<path fill-rule="evenodd" clip-rule="evenodd" d="M214.123 143.238C186.65 129.328 170.247 146.684 177.157 149.78C180.613 151.359 186.59 149.432 190.923 147.504C198.13 144.348 206.567 142.537 214.123 143.238Z" fill="black" fill-opacity="0.25"/>
<path fill-rule="evenodd" clip-rule="evenodd" d="M225.077 129.62C185.417 99.7573 154.487 122.666 164.503 129.62C169.543 133.126 179.62 131.667 187.06 129.853C199.36 126.872 213.243 126.347 225.077 129.62Z" fill="black" fill-opacity="0.25"/>
</svg>
