<?xml version="1.0" encoding="UTF-8" standalone="no" ?>
<!DOCTYPE svg PUBLIC "-//W3C//DTD SVG 1.1//EN" "http://www.w3.org/Graphics/SVG/1.1/DTD/svg11.dtd">
<svg xmlns="http://www.w3.org/2000/svg" xmlns:xlink="http://www.w3.org/1999/xlink" version="1.1" width="1080" height="1080" viewBox="8.46 -8.14 1080 1080" xml:space="preserve">
<desc>Created with Fabric.js 5.2.4</desc>
<defs>
</defs>
<rect x="0" y="0" width="100%" height="100%" fill="transparent"></rect>
<g transform="matrix(1 0 0 1 540 540)" id="60bf1989-3107-45bd-93d2-bfcbd15fd6f9"  >
</g>
<g transform="matrix(1 0 0 1 540 540)" id="9f216537-fd7e-489b-9b07-41e9ea2371ab"  >
<rect style="stroke: none; stroke-width: 1; stroke-dasharray: none; stroke-linecap: butt; stroke-dashoffset: 0; stroke-linejoin: miter; stroke-miterlimit: 4; fill: rgb(255,255,255); fill-rule: nonzero; opacity: 1; visibility: hidden;" vector-effect="non-scaling-stroke"  x="-540" y="-540" rx="0" ry="0" width="1080" height="1080" />
</g>
<g transform="matrix(3.75 0 0 4.03 942.6 553.1)"  >
<path style="stroke: none; stroke-width: 1; stroke-dasharray: none; stroke-linecap: butt; stroke-dashoffset: 0; stroke-linejoin: miter; stroke-miterlimit: 4; fill: rgb(95,172,232); fill-rule: evenodd; opacity: 1;" vector-effect="non-scaling-stroke"  transform=" translate(-291.1, -200.83)" d="M 309.710938 206.761719 C 309.710938 206.761719 312.363281 202.667969 312.40625 197.820312 C 312.460938 192.972656 309.199219 189.972656 306.855469 191.871094 C 306.667969 192.03125 312.945312 194.46875 309.710938 206.761719 M 294.664062 211.402344 C 305.898438 208.457031 308.40625 196.230469 298.933594 194.386719 C 299.539062 193.847656 300.265625 193.445312 301.101562 193.230469 C 301.804688 193.042969 302.515625 193.015625 303.191406 193.109375 C 303.6875 191.386719 305.0625 189.957031 306.9375 189.472656 C 309.765625 188.734375 312.660156 190.417969 313.417969 193.230469 C 315.949219 202.800781 308.039062 214.175781 296.710938 216.816406 C 284.546875 219.65625 272.257812 212.804688 269.066406 200.769531 C 267.53125 194.96875 268.417969 189.082031 271.101562 184.210938 C 269.402344 188.15625 268.957031 192.691406 270.144531 197.160156 C 272.960938 207.851562 283.9375 214.21875 294.664062 211.402344 Z M 294.664062 211.402344" stroke-linecap="round" />
</g>
<g transform="matrix(4.03 0 0 4.03 999.62 489.78)"  >
<path style="stroke: none; stroke-width: 1; stroke-dasharray: none; stroke-linecap: butt; stroke-dashoffset: 0; stroke-linejoin: miter; stroke-miterlimit: 4; fill: rgb(95,172,232); fill-rule: evenodd; opacity: 1;" vector-effect="non-scaling-stroke"  transform=" translate(-307.06, -185.12)" d="M 312.363281 188.976562 C 312.363281 188.976562 310.492188 182.082031 304.738281 181.316406 C 301.128906 180.832031 301.398438 183.320312 302.449219 184.414062 C 304.46875 186.527344 308.929688 183.953125 312.363281 188.976562" stroke-linecap="round" />
</g>
<g transform="matrix(4.03 0 0 4.03 960.6 516.39)"  >
<path style="stroke: none; stroke-width: 1; stroke-dasharray: none; stroke-linecap: butt; stroke-dashoffset: 0; stroke-linejoin: miter; stroke-miterlimit: 4; fill: rgb(95,172,232); fill-rule: evenodd; opacity: 1;" vector-effect="non-scaling-stroke"  transform=" translate(-297.37, -191.73)" d="M 301.804688 191.519531 C 295.484375 188.316406 291.710938 192.316406 293.300781 193.027344 C 294.097656 193.390625 295.472656 192.949219 296.46875 192.503906 C 298.125 191.777344 300.066406 191.359375 301.804688 191.519531" stroke-linecap="round" />
</g>
<g transform="matrix(4.03 0 0 4.03 959.63 496.98)"  >
<path style="stroke: none; stroke-width: 1; stroke-dasharray: none; stroke-linecap: butt; stroke-dashoffset: 0; stroke-linejoin: miter; stroke-miterlimit: 4; fill: rgb(95,172,232); fill-rule: evenodd; opacity: 1;" vector-effect="non-scaling-stroke"  transform=" translate(-297.14, -186.91)" d="M 304.324219 188.382812 C 295.203125 181.503906 288.089844 186.78125 290.390625 188.382812 C 291.550781 189.191406 293.867188 188.855469 295.578125 188.4375 C 298.40625 187.75 301.601562 187.628906 304.324219 188.382812" stroke-linecap="round" />
</g>
<g transform="matrix(4.2 0 0 4.2 132.76 497.4)"  >
<path style="stroke: none; stroke-width: 1; stroke-dasharray: none; stroke-linecap: butt; stroke-dashoffset: 0; stroke-linejoin: miter; stroke-miterlimit: 4; fill: rgb(95,172,232); fill-rule: nonzero; opacity: 1;" vector-effect="non-scaling-stroke"  transform=" translate(-28.9, 28.56)" d="M 24.109375 -30.265625 C 25.921875 -30.265625 27.457031 -30.492188 28.71875 -30.953125 C 29.988281 -31.410156 31.03125 -32.046875 31.84375 -32.859375 C 32.65625 -33.671875 33.242188 -34.617188 33.609375 -35.703125 C 33.972656 -36.785156 34.15625 -37.957031 34.15625 -39.21875 C 34.15625 -41.71875 33.335938 -43.671875 31.703125 -45.078125 C 30.066406 -46.492188 27.535156 -47.203125 24.109375 -47.203125 L 18.78125 -47.203125 L 18.78125 -30.265625 Z M 52.265625 0 L 40.265625 0 C 38.046875 0 36.453125 -0.835938 35.484375 -2.515625 L 26 -19.09375 C 25.550781 -19.800781 25.050781 -20.316406 24.5 -20.640625 C 23.957031 -20.972656 23.175781 -21.140625 22.15625 -21.140625 L 18.78125 -21.140625 L 18.78125 0 L 5.53125 0 L 5.53125 -57.125 L 24.109375 -57.125 C 28.242188 -57.125 31.765625 -56.695312 34.671875 -55.84375 C 37.585938 -55 39.96875 -53.816406 41.8125 -52.296875 C 43.65625 -50.785156 44.992188 -49 45.828125 -46.9375 C 46.671875 -44.875 47.09375 -42.625 47.09375 -40.1875 C 47.09375 -38.332031 46.84375 -36.582031 46.34375 -34.9375 C 45.851562 -33.289062 45.125 -31.765625 44.15625 -30.359375 C 43.1875 -28.960938 41.988281 -27.71875 40.5625 -26.625 C 39.132812 -25.53125 37.492188 -24.628906 35.640625 -23.921875 C 36.503906 -23.472656 37.316406 -22.914062 38.078125 -22.25 C 38.835938 -21.582031 39.515625 -20.789062 40.109375 -19.875 Z M 52.265625 0" stroke-linecap="round" />
</g>
<g transform="matrix(4.2 0 0 4.2 345.29 497.4)"  >
<path style="stroke: none; stroke-width: 1; stroke-dasharray: none; stroke-linecap: butt; stroke-dashoffset: 0; stroke-linejoin: miter; stroke-miterlimit: 4; fill: rgb(95,172,232); fill-rule: nonzero; opacity: 1;" vector-effect="non-scaling-stroke"  transform=" translate(-27.88, 28.56)" d="M 35.71875 -21.84375 L 30.421875 -37.484375 C 30.035156 -38.472656 29.617188 -39.640625 29.171875 -40.984375 C 28.722656 -42.335938 28.28125 -43.796875 27.84375 -45.359375 C 27.445312 -43.765625 27.023438 -42.285156 26.578125 -40.921875 C 26.140625 -39.566406 25.722656 -38.394531 25.328125 -37.40625 L 20.078125 -21.84375 Z M 56.78125 0 L 46.5 0 C 45.351562 0 44.425781 -0.265625 43.71875 -0.796875 C 43.007812 -1.335938 42.472656 -2.023438 42.109375 -2.859375 L 38.734375 -12.828125 L 17.015625 -12.828125 L 13.640625 -2.859375 C 13.359375 -2.128906 12.84375 -1.46875 12.09375 -0.875 C 11.351562 -0.289062 10.429688 0 9.328125 0 L -1.015625 0 L 21.09375 -57.125 L 34.65625 -57.125 Z M 56.78125 0" stroke-linecap="round" />
</g>
<g transform="matrix(4.2 0 0 4.2 551.51 497.34)"  >
<path style="stroke: none; stroke-width: 1; stroke-dasharray: none; stroke-linecap: butt; stroke-dashoffset: 0; stroke-linejoin: miter; stroke-miterlimit: 4; fill: rgb(95,172,232); fill-rule: nonzero; opacity: 1;" vector-effect="non-scaling-stroke"  transform=" translate(-21.13, 28.57)" d="M 37.09375 -45.53125 C 36.695312 -44.894531 36.285156 -44.421875 35.859375 -44.109375 C 35.429688 -43.796875 34.875 -43.640625 34.1875 -43.640625 C 33.59375 -43.640625 32.945312 -43.828125 32.25 -44.203125 C 31.5625 -44.585938 30.773438 -45.015625 29.890625 -45.484375 C 29.015625 -45.953125 28.015625 -46.375 26.890625 -46.75 C 25.773438 -47.132812 24.5 -47.328125 23.0625 -47.328125 C 20.570312 -47.328125 18.71875 -46.796875 17.5 -45.734375 C 16.289062 -44.679688 15.6875 -43.253906 15.6875 -41.453125 C 15.6875 -40.296875 16.050781 -39.335938 16.78125 -38.578125 C 17.507812 -37.828125 18.46875 -37.175781 19.65625 -36.625 C 20.851562 -36.070312 22.210938 -35.566406 23.734375 -35.109375 C 25.265625 -34.648438 26.828125 -34.140625 28.421875 -33.578125 C 30.015625 -33.015625 31.578125 -32.351562 33.109375 -31.59375 C 34.640625 -30.84375 36 -29.878906 37.1875 -28.703125 C 38.375 -27.523438 39.332031 -26.09375 40.0625 -24.40625 C 40.800781 -22.71875 41.171875 -20.6875 41.171875 -18.3125 C 41.171875 -15.664062 40.710938 -13.191406 39.796875 -10.890625 C 38.878906 -8.597656 37.550781 -6.59375 35.8125 -4.875 C 34.082031 -3.164062 31.941406 -1.820312 29.390625 -0.84375 C 26.835938 0.132812 23.941406 0.625 20.703125 0.625 C 18.921875 0.625 17.109375 0.441406 15.265625 0.078125 C 13.429688 -0.285156 11.648438 -0.800781 9.921875 -1.46875 C 8.191406 -2.132812 6.566406 -2.925781 5.046875 -3.84375 C 3.535156 -4.757812 2.21875 -5.78125 1.09375 -6.90625 L 5.015625 -13.09375 C 5.328125 -13.539062 5.738281 -13.914062 6.25 -14.21875 C 6.757812 -14.519531 7.316406 -14.671875 7.921875 -14.671875 C 8.703125 -14.671875 9.488281 -14.421875 10.28125 -13.921875 C 11.082031 -13.421875 11.988281 -12.867188 13 -12.265625 C 14.007812 -11.671875 15.164062 -11.125 16.46875 -10.625 C 17.769531 -10.125 19.3125 -9.875 21.09375 -9.875 C 23.5 -9.875 25.367188 -10.40625 26.703125 -11.46875 C 28.035156 -12.53125 28.703125 -14.210938 28.703125 -16.515625 C 28.703125 -17.835938 28.332031 -18.914062 27.59375 -19.75 C 26.863281 -20.59375 25.90625 -21.285156 24.71875 -21.828125 C 23.53125 -22.378906 22.175781 -22.863281 20.65625 -23.28125 C 19.144531 -23.707031 17.59375 -24.175781 16 -24.6875 C 14.40625 -25.195312 12.847656 -25.820312 11.328125 -26.5625 C 9.816406 -27.3125 8.460938 -28.289062 7.265625 -29.5 C 6.078125 -30.71875 5.117188 -32.234375 4.390625 -34.046875 C 3.660156 -35.867188 3.296875 -38.113281 3.296875 -40.78125 C 3.296875 -42.925781 3.722656 -45.015625 4.578125 -47.046875 C 5.441406 -49.085938 6.710938 -50.90625 8.390625 -52.5 C 10.066406 -54.09375 12.117188 -55.367188 14.546875 -56.328125 C 16.972656 -57.285156 19.757812 -57.765625 22.90625 -57.765625 C 24.65625 -57.765625 26.359375 -57.625 28.015625 -57.34375 C 29.671875 -57.070312 31.242188 -56.664062 32.734375 -56.125 C 34.222656 -55.59375 35.613281 -54.953125 36.90625 -54.203125 C 38.207031 -53.460938 39.367188 -52.625 40.390625 -51.6875 Z M 37.09375 -45.53125" stroke-linecap="round" />
</g>
<g transform="matrix(4.2 0 0 4.2 745.73 497.4)"  >
<path style="stroke: none; stroke-width: 1; stroke-dasharray: none; stroke-linecap: butt; stroke-dashoffset: 0; stroke-linejoin: miter; stroke-miterlimit: 4; fill: rgb(95,172,232); fill-rule: nonzero; opacity: 1;" vector-effect="non-scaling-stroke"  transform=" translate(-23.88, 28.56)" d="M 46.578125 -46.625 L 30.5 -46.625 L 30.5 0 L 17.25 0 L 17.25 -46.625 L 1.171875 -46.625 L 1.171875 -57.125 L 46.578125 -57.125 Z M 46.578125 -46.625" stroke-linecap="round" />
</g>
<g transform="matrix(4.03 0 0 4.03 51.8 679.76)"  >
<path style="stroke: none; stroke-width: 1; stroke-dasharray: none; stroke-linecap: butt; stroke-dashoffset: 0; stroke-linejoin: miter; stroke-miterlimit: 4; fill: rgb(42,200,172); fill-rule: nonzero; opacity: 1;" vector-effect="non-scaling-stroke"  transform=" translate(-6.79, 6.93)" d="M 11.796875 -2.1875 L 11.796875 0 L 1.78125 0 L 1.78125 -13.859375 L 11.59375 -13.859375 L 11.59375 -11.6875 L 4.5625 -11.6875 L 4.5625 -8.03125 L 11.09375 -8.03125 L 11.09375 -5.84375 L 4.5625 -5.84375 L 4.5625 -2.1875 Z M 11.796875 -2.1875" stroke-linecap="round" />
</g>
<g transform="matrix(4.03 0 0 4.03 101.85 679.76)"  >
<path style="stroke: none; stroke-width: 1; stroke-dasharray: none; stroke-linecap: butt; stroke-dashoffset: 0; stroke-linejoin: miter; stroke-miterlimit: 4; fill: rgb(42,200,172); fill-rule: nonzero; opacity: 1;" vector-effect="non-scaling-stroke"  transform=" translate(-6.79, 6.93)" d="M 11.796875 -2.3125 L 11.796875 0 L 1.78125 0 L 1.78125 -13.859375 L 4.5625 -13.859375 L 4.5625 -2.3125 Z M 11.796875 -2.3125" stroke-linecap="round" />
</g>
<g transform="matrix(4.03 0 0 4.03 150.92 679.76)"  >
<path style="stroke: none; stroke-width: 1; stroke-dasharray: none; stroke-linecap: butt; stroke-dashoffset: 0; stroke-linejoin: miter; stroke-miterlimit: 4; fill: rgb(42,200,172); fill-rule: nonzero; opacity: 1;" vector-effect="non-scaling-stroke"  transform=" translate(-6.79, 6.93)" d="M 11.796875 -2.1875 L 11.796875 0 L 1.78125 0 L 1.78125 -13.859375 L 11.59375 -13.859375 L 11.59375 -11.6875 L 4.5625 -11.6875 L 4.5625 -8.03125 L 11.09375 -8.03125 L 11.09375 -5.84375 L 4.5625 -5.84375 L 4.5625 -2.1875 Z M 11.796875 -2.1875" stroke-linecap="round" />
</g>
<g transform="matrix(4.03 0 0 4.03 203.13 679.76)"  >
<path style="stroke: none; stroke-width: 1; stroke-dasharray: none; stroke-linecap: butt; stroke-dashoffset: 0; stroke-linejoin: miter; stroke-miterlimit: 4; fill: rgb(42,200,172); fill-rule: nonzero; opacity: 1;" vector-effect="non-scaling-stroke"  transform=" translate(-7.34, 6.93)" d="M 9.015625 0 L 5.546875 0 L 0.640625 -13.859375 L 3.65625 -13.859375 L 7.328125 -2.125 L 11.078125 -13.859375 L 14.03125 -13.859375 Z M 9.015625 0" stroke-linecap="round" />
</g>
<g transform="matrix(4.03 0 0 4.03 257.63 679.76)"  >
<path style="stroke: none; stroke-width: 1; stroke-dasharray: none; stroke-linecap: butt; stroke-dashoffset: 0; stroke-linejoin: miter; stroke-miterlimit: 4; fill: rgb(42,200,172); fill-rule: nonzero; opacity: 1;" vector-effect="non-scaling-stroke"  transform=" translate(-6.99, 6.93)" d="M 9.296875 -4.171875 L 4.640625 -4.171875 L 3.25 0 L 0.296875 0 L 5.3125 -13.859375 L 8.78125 -13.859375 L 13.6875 0 L 10.671875 0 Z M 7 -11.5 L 5.34375 -6.375 L 8.59375 -6.375 Z M 7 -11.5" stroke-linecap="round" />
</g>
<g transform="matrix(4.03 0 0 4.03 310.79 679.76)"  >
<path style="stroke: none; stroke-width: 1; stroke-dasharray: none; stroke-linecap: butt; stroke-dashoffset: 0; stroke-linejoin: miter; stroke-miterlimit: 4; fill: rgb(42,200,172); fill-rule: nonzero; opacity: 1;" vector-effect="non-scaling-stroke"  transform=" translate(-6.55, 6.93)" d="M 12.640625 -11.6875 L 7.9375 -11.6875 L 7.9375 0 L 5.171875 0 L 5.171875 -11.6875 L 0.46875 -11.6875 L 0.46875 -13.859375 L 12.640625 -13.859375 Z M 12.640625 -11.6875" stroke-linecap="round" />
</g>
<g transform="matrix(4.03 0 0 4.03 362.34 679.76)"  >
<path style="stroke: none; stroke-width: 1; stroke-dasharray: none; stroke-linecap: butt; stroke-dashoffset: 0; stroke-linejoin: miter; stroke-miterlimit: 4; fill: rgb(42,200,172); fill-rule: nonzero; opacity: 1;" vector-effect="non-scaling-stroke"  transform=" translate(-6.79, 6.93)" d="M 11.796875 -2.1875 L 11.796875 0 L 1.78125 0 L 1.78125 -13.859375 L 11.59375 -13.859375 L 11.59375 -11.6875 L 4.5625 -11.6875 L 4.5625 -8.03125 L 11.09375 -8.03125 L 11.09375 -5.84375 L 4.5625 -5.84375 L 4.5625 -2.1875 Z M 11.796875 -2.1875" stroke-linecap="round" />
</g>
<g transform="matrix(4.03 0 0 4.03 410.32 679.77)"  >
<path style="stroke: none; stroke-width: 1; stroke-dasharray: none; stroke-linecap: butt; stroke-dashoffset: 0; stroke-linejoin: miter; stroke-miterlimit: 4; fill: rgb(42,200,172); fill-rule: nonzero; opacity: 1;" vector-effect="non-scaling-stroke"  transform=" translate(-6.28, 6.93)" d="M 6.390625 -14.140625 C 7.972656 -14.140625 9.179688 -13.742188 10.015625 -12.953125 C 10.847656 -12.171875 11.347656 -11.113281 11.515625 -9.78125 L 8.6875 -9.78125 C 8.601562 -10.507812 8.359375 -11.070312 7.953125 -11.46875 C 7.554688 -11.875 7.003906 -12.078125 6.296875 -12.078125 C 5.710938 -12.078125 5.238281 -11.9375 4.875 -11.65625 C 4.519531 -11.375 4.34375 -10.960938 4.34375 -10.421875 C 4.34375 -9.835938 4.554688 -9.378906 4.984375 -9.046875 C 5.421875 -8.710938 6.191406 -8.414062 7.296875 -8.15625 C 8.804688 -7.8125 9.921875 -7.28125 10.640625 -6.5625 C 11.359375 -5.851562 11.71875 -4.9375 11.71875 -3.8125 C 11.71875 -2.550781 11.21875 -1.550781 10.21875 -0.8125 C 9.226562 -0.0820312 8.019531 0.28125 6.59375 0.28125 C 4.90625 0.28125 3.554688 -0.0859375 2.546875 -0.828125 C 1.546875 -1.578125 0.976562 -2.664062 0.84375 -4.09375 L 3.671875 -4.09375 C 3.816406 -3.363281 4.148438 -2.796875 4.671875 -2.390625 C 5.203125 -1.984375 5.828125 -1.78125 6.546875 -1.78125 C 7.191406 -1.78125 7.734375 -1.941406 8.171875 -2.265625 C 8.609375 -2.585938 8.828125 -3.007812 8.828125 -3.53125 C 8.828125 -4.125 8.613281 -4.597656 8.1875 -4.953125 C 7.769531 -5.316406 7.054688 -5.625 6.046875 -5.875 C 4.492188 -6.25 3.332031 -6.742188 2.5625 -7.359375 C 1.800781 -7.984375 1.421875 -8.894531 1.421875 -10.09375 C 1.421875 -11.320312 1.898438 -12.300781 2.859375 -13.03125 C 3.828125 -13.769531 5.003906 -14.140625 6.390625 -14.140625 Z M 6.390625 -14.140625" stroke-linecap="round" />
</g>
<g transform="matrix(4.03 0 0 4.03 478.65 679.76)"  >
<path style="stroke: none; stroke-width: 1; stroke-dasharray: none; stroke-linecap: butt; stroke-dashoffset: 0; stroke-linejoin: miter; stroke-miterlimit: 4; fill: rgb(42,200,172); fill-rule: nonzero; opacity: 1;" vector-effect="non-scaling-stroke"  transform=" translate(-7.06, 6.93)" d="M 8.59375 -13.765625 C 9.707031 -13.640625 10.609375 -13.210938 11.296875 -12.484375 C 11.992188 -11.753906 12.34375 -10.773438 12.34375 -9.546875 C 12.34375 -8.328125 11.984375 -7.351562 11.265625 -6.625 C 10.554688 -5.894531 9.664062 -5.460938 8.59375 -5.328125 C 8.019531 -5.253906 7.351562 -5.21875 6.59375 -5.21875 L 4.5625 -5.21875 L 4.5625 0 L 1.78125 0 L 1.78125 -13.859375 L 6.59375 -13.859375 C 7.363281 -13.859375 8.03125 -13.828125 8.59375 -13.765625 Z M 7.78125 -7.46875 C 8.875 -7.632812 9.421875 -8.328125 9.421875 -9.546875 C 9.421875 -10.765625 8.875 -11.453125 7.78125 -11.609375 C 7.46875 -11.648438 7.054688 -11.671875 6.546875 -11.671875 L 4.5625 -11.671875 L 4.5625 -7.421875 L 6.546875 -7.421875 C 7.054688 -7.421875 7.46875 -7.4375 7.78125 -7.46875 Z M 7.78125 -7.46875" stroke-linecap="round" />
</g>
<g transform="matrix(4.03 0 0 4.03 528.14 679.76)"  >
<path style="stroke: none; stroke-width: 1; stroke-dasharray: none; stroke-linecap: butt; stroke-dashoffset: 0; stroke-linejoin: miter; stroke-miterlimit: 4; fill: rgb(42,200,172); fill-rule: nonzero; opacity: 1;" vector-effect="non-scaling-stroke"  transform=" translate(-6.79, 6.93)" d="M 11.796875 -2.1875 L 11.796875 0 L 1.78125 0 L 1.78125 -13.859375 L 11.59375 -13.859375 L 11.59375 -11.6875 L 4.5625 -11.6875 L 4.5625 -8.03125 L 11.09375 -8.03125 L 11.09375 -5.84375 L 4.5625 -5.84375 L 4.5625 -2.1875 Z M 11.796875 -2.1875" stroke-linecap="round" />
</g>
<g transform="matrix(4.03 0 0 4.03 580.29 679.76)"  >
<path style="stroke: none; stroke-width: 1; stroke-dasharray: none; stroke-linecap: butt; stroke-dashoffset: 0; stroke-linejoin: miter; stroke-miterlimit: 4; fill: rgb(42,200,172); fill-rule: nonzero; opacity: 1;" vector-effect="non-scaling-stroke"  transform=" translate(-7.31, 6.93)" d="M 11.828125 -3.5 C 12.003906 -1.851562 12.34375 -0.6875 12.84375 0 L 9.8125 0 C 9.46875 -0.925781 9.238281 -1.957031 9.125 -3.09375 C 8.9375 -4.664062 8.3125 -5.488281 7.25 -5.5625 C 7 -5.582031 6.640625 -5.59375 6.171875 -5.59375 L 4.5625 -5.59375 L 4.5625 0 L 1.78125 0 L 1.78125 -13.859375 L 6.859375 -13.859375 C 7.617188 -13.859375 8.285156 -13.828125 8.859375 -13.765625 C 9.960938 -13.628906 10.84375 -13.265625 11.5 -12.671875 C 12.164062 -12.078125 12.5 -11.21875 12.5 -10.09375 C 12.5 -9.21875 12.253906 -8.492188 11.765625 -7.921875 C 11.285156 -7.359375 10.625 -6.957031 9.78125 -6.71875 C 10.976562 -6.257812 11.660156 -5.1875 11.828125 -3.5 Z M 4.5625 -7.65625 L 6.46875 -7.65625 C 7.019531 -7.65625 7.394531 -7.660156 7.59375 -7.671875 C 8.914062 -7.796875 9.578125 -8.460938 9.578125 -9.671875 C 9.578125 -10.296875 9.421875 -10.757812 9.109375 -11.0625 C 8.796875 -11.363281 8.34375 -11.554688 7.75 -11.640625 C 7.4375 -11.671875 7.050781 -11.6875 6.59375 -11.6875 L 4.5625 -11.6875 Z M 4.5625 -7.65625" stroke-linecap="round" />
</g>
<g transform="matrix(4.03 0 0 4.03 630.91 679.76)"  >
<path style="stroke: none; stroke-width: 1; stroke-dasharray: none; stroke-linecap: butt; stroke-dashoffset: 0; stroke-linejoin: miter; stroke-miterlimit: 4; fill: rgb(42,200,172); fill-rule: nonzero; opacity: 1;" vector-effect="non-scaling-stroke"  transform=" translate(-6.69, 6.93)" d="M 4.5625 -11.6875 L 4.5625 -8.03125 L 10.890625 -8.03125 L 10.890625 -5.84375 L 4.5625 -5.84375 L 4.5625 0 L 1.78125 0 L 1.78125 -13.859375 L 11.59375 -13.859375 L 11.59375 -11.6875 Z M 4.5625 -11.6875" stroke-linecap="round" />
</g>
<g transform="matrix(4.03 0 0 4.03 683.88 679.77)"  >
<path style="stroke: none; stroke-width: 1; stroke-dasharray: none; stroke-linecap: butt; stroke-dashoffset: 0; stroke-linejoin: miter; stroke-miterlimit: 4; fill: rgb(42,200,172); fill-rule: nonzero; opacity: 1;" vector-effect="non-scaling-stroke"  transform=" translate(-7.88, 6.93)" d="M 7.875 -14.140625 C 9.988281 -14.140625 11.660156 -13.488281 12.890625 -12.1875 C 14.117188 -10.882812 14.734375 -9.132812 14.734375 -6.9375 C 14.734375 -4.75 14.117188 -3 12.890625 -1.6875 C 11.660156 -0.375 9.988281 0.28125 7.875 0.28125 C 5.757812 0.28125 4.085938 -0.375 2.859375 -1.6875 C 1.640625 -3 1.03125 -4.75 1.03125 -6.9375 C 1.03125 -9.132812 1.640625 -10.882812 2.859375 -12.1875 C 4.078125 -13.488281 5.75 -14.140625 7.875 -14.140625 Z M 4.96875 -3.140625 C 5.675781 -2.234375 6.644531 -1.78125 7.875 -1.78125 C 9.101562 -1.78125 10.066406 -2.234375 10.765625 -3.140625 C 11.460938 -4.054688 11.8125 -5.320312 11.8125 -6.9375 C 11.8125 -8.550781 11.460938 -9.8125 10.765625 -10.71875 C 10.066406 -11.625 9.101562 -12.078125 7.875 -12.078125 C 6.632812 -12.078125 5.664062 -11.625 4.96875 -10.71875 C 4.269531 -9.8125 3.921875 -8.546875 3.921875 -6.921875 C 3.921875 -5.304688 4.269531 -4.046875 4.96875 -3.140625 Z M 4.96875 -3.140625" stroke-linecap="round" />
</g>
<g transform="matrix(4.03 0 0 4.03 743.73 679.76)"  >
<path style="stroke: none; stroke-width: 1; stroke-dasharray: none; stroke-linecap: butt; stroke-dashoffset: 0; stroke-linejoin: miter; stroke-miterlimit: 4; fill: rgb(42,200,172); fill-rule: nonzero; opacity: 1;" vector-effect="non-scaling-stroke"  transform=" translate(-7.31, 6.93)" d="M 11.828125 -3.5 C 12.003906 -1.851562 12.34375 -0.6875 12.84375 0 L 9.8125 0 C 9.46875 -0.925781 9.238281 -1.957031 9.125 -3.09375 C 8.9375 -4.664062 8.3125 -5.488281 7.25 -5.5625 C 7 -5.582031 6.640625 -5.59375 6.171875 -5.59375 L 4.5625 -5.59375 L 4.5625 0 L 1.78125 0 L 1.78125 -13.859375 L 6.859375 -13.859375 C 7.617188 -13.859375 8.285156 -13.828125 8.859375 -13.765625 C 9.960938 -13.628906 10.84375 -13.265625 11.5 -12.671875 C 12.164062 -12.078125 12.5 -11.21875 12.5 -10.09375 C 12.5 -9.21875 12.253906 -8.492188 11.765625 -7.921875 C 11.285156 -7.359375 10.625 -6.957031 9.78125 -6.71875 C 10.976562 -6.257812 11.660156 -5.1875 11.828125 -3.5 Z M 4.5625 -7.65625 L 6.46875 -7.65625 C 7.019531 -7.65625 7.394531 -7.660156 7.59375 -7.671875 C 8.914062 -7.796875 9.578125 -8.460938 9.578125 -9.671875 C 9.578125 -10.296875 9.421875 -10.757812 9.109375 -11.0625 C 8.796875 -11.363281 8.34375 -11.554688 7.75 -11.640625 C 7.4375 -11.671875 7.050781 -11.6875 6.59375 -11.6875 L 4.5625 -11.6875 Z M 4.5625 -7.65625" stroke-linecap="round" />
</g>
<g transform="matrix(4.03 0 0 4.03 804.71 679.76)"  >
<path style="stroke: none; stroke-width: 1; stroke-dasharray: none; stroke-linecap: butt; stroke-dashoffset: 0; stroke-linejoin: miter; stroke-miterlimit: 4; fill: rgb(42,200,172); fill-rule: nonzero; opacity: 1;" vector-effect="non-scaling-stroke"  transform=" translate(-9.26, 6.93)" d="M 16.734375 -13.859375 L 16.734375 0 L 13.96875 0 L 13.96875 -6.40625 C 13.96875 -8.601562 13.976562 -10.1875 14 -11.15625 C 13.625 -9.539062 13.195312 -7.96875 12.71875 -6.4375 L 10.765625 0 L 7.75 0 L 5.765625 -6.453125 C 5.253906 -8.148438 4.835938 -9.707031 4.515625 -11.125 C 4.546875 -10.164062 4.5625 -8.59375 4.5625 -6.40625 L 4.5625 0 L 1.78125 0 L 1.78125 -13.859375 L 6.171875 -13.859375 L 9.296875 -2.546875 L 12.4375 -13.859375 Z M 16.734375 -13.859375" stroke-linecap="round" />
</g>
<g transform="matrix(4.03 0 0 4.03 868.42 679.76)"  >
<path style="stroke: none; stroke-width: 1; stroke-dasharray: none; stroke-linecap: butt; stroke-dashoffset: 0; stroke-linejoin: miter; stroke-miterlimit: 4; fill: rgb(42,200,172); fill-rule: nonzero; opacity: 1;" vector-effect="non-scaling-stroke"  transform=" translate(-6.99, 6.93)" d="M 9.296875 -4.171875 L 4.640625 -4.171875 L 3.25 0 L 0.296875 0 L 5.3125 -13.859375 L 8.78125 -13.859375 L 13.6875 0 L 10.671875 0 Z M 7 -11.5 L 5.34375 -6.375 L 8.59375 -6.375 Z M 7 -11.5" stroke-linecap="round" />
</g>
<g transform="matrix(4.03 0 0 4.03 926.89 679.76)"  >
<path style="stroke: none; stroke-width: 1; stroke-dasharray: none; stroke-linecap: butt; stroke-dashoffset: 0; stroke-linejoin: miter; stroke-miterlimit: 4; fill: rgb(42,200,172); fill-rule: nonzero; opacity: 1;" vector-effect="non-scaling-stroke"  transform=" translate(-7.88, 6.93)" d="M 13.96875 0 L 10.171875 0 L 4.453125 -10.53125 C 4.523438 -9.269531 4.5625 -7.847656 4.5625 -6.265625 L 4.5625 0 L 1.78125 0 L 1.78125 -13.859375 L 5.46875 -13.859375 L 11.296875 -3.140625 C 11.222656 -4.378906 11.1875 -5.832031 11.1875 -7.5 L 11.1875 -13.859375 L 13.9375 -13.859375 Z M 13.96875 0" stroke-linecap="round" />
</g>
<g transform="matrix(4.03 0 0 4.03 986.68 679.77)"  >
<path style="stroke: none; stroke-width: 1; stroke-dasharray: none; stroke-linecap: butt; stroke-dashoffset: 0; stroke-linejoin: miter; stroke-miterlimit: 4; fill: rgb(42,200,172); fill-rule: nonzero; opacity: 1;" vector-effect="non-scaling-stroke"  transform=" translate(-7.39, 6.93)" d="M 7.734375 -14.140625 C 9.546875 -14.140625 10.957031 -13.703125 11.96875 -12.828125 C 12.988281 -11.953125 13.570312 -10.796875 13.71875 -9.359375 L 13.75 -9.15625 L 10.96875 -9.15625 L 10.9375 -9.359375 C 10.570312 -11.171875 9.492188 -12.078125 7.703125 -12.078125 C 6.578125 -12.078125 5.671875 -11.625 4.984375 -10.71875 C 4.296875 -9.8125 3.953125 -8.578125 3.953125 -7.015625 C 3.953125 -5.335938 4.296875 -4.046875 4.984375 -3.140625 C 5.671875 -2.234375 6.5625 -1.78125 7.65625 -1.78125 C 8.539062 -1.78125 9.25 -2.03125 9.78125 -2.53125 C 10.320312 -3.03125 10.6875 -3.71875 10.875 -4.59375 L 10.90625 -4.796875 L 13.65625 -4.796875 L 13.640625 -4.59375 C 13.492188 -3.09375 12.878906 -1.90625 11.796875 -1.03125 C 10.710938 -0.15625 9.289062 0.28125 7.53125 0.28125 C 5.570312 0.28125 4 -0.359375 2.8125 -1.640625 C 1.625 -2.929688 1.03125 -4.671875 1.03125 -6.859375 C 1.03125 -9.078125 1.65625 -10.84375 2.90625 -12.15625 C 4.164062 -13.476562 5.773438 -14.140625 7.734375 -14.140625 Z M 7.734375 -14.140625" stroke-linecap="round" />
</g>
<g transform="matrix(4.03 0 0 4.03 1042.58 679.76)"  >
<path style="stroke: none; stroke-width: 1; stroke-dasharray: none; stroke-linecap: butt; stroke-dashoffset: 0; stroke-linejoin: miter; stroke-miterlimit: 4; fill: rgb(42,200,172); fill-rule: nonzero; opacity: 1;" vector-effect="non-scaling-stroke"  transform=" translate(-6.79, 6.93)" d="M 11.796875 -2.1875 L 11.796875 0 L 1.78125 0 L 1.78125 -13.859375 L 11.59375 -13.859375 L 11.59375 -11.6875 L 4.5625 -11.6875 L 4.5625 -8.03125 L 11.09375 -8.03125 L 11.09375 -5.84375 L 4.5625 -5.84375 L 4.5625 -2.1875 Z M 11.796875 -2.1875" stroke-linecap="round" />
</g>
<g transform="matrix(-3.64 0 0 -4.03 976.85 440.4)"  >
<path style="stroke: none; stroke-width: 1; stroke-dasharray: none; stroke-linecap: butt; stroke-dashoffset: 0; stroke-linejoin: miter; stroke-miterlimit: 4; fill: rgb(42,200,172); fill-rule: evenodd; opacity: 1;" vector-effect="non-scaling-stroke"  transform=" translate(-291.1, -200.83)" d="M 309.710938 206.761719 C 309.710938 206.761719 312.363281 202.667969 312.40625 197.820312 C 312.460938 192.972656 309.199219 189.972656 306.855469 191.871094 C 306.667969 192.03125 312.945312 194.46875 309.710938 206.761719 M 294.664062 211.402344 C 305.898438 208.457031 308.40625 196.230469 298.933594 194.386719 C 299.539062 193.847656 300.265625 193.445312 301.101562 193.230469 C 301.804688 193.042969 302.515625 193.015625 303.191406 193.109375 C 303.6875 191.386719 305.0625 189.957031 306.9375 189.472656 C 309.765625 188.734375 312.660156 190.417969 313.417969 193.230469 C 315.949219 202.800781 308.039062 214.175781 296.710938 216.816406 C 284.546875 219.65625 272.257812 212.804688 269.066406 200.769531 C 267.53125 194.96875 268.417969 189.082031 271.101562 184.210938 C 269.402344 188.15625 268.957031 192.691406 270.144531 197.160156 C 272.960938 207.851562 283.9375 214.21875 294.664062 211.402344 Z M 294.664062 211.402344" stroke-linecap="round" />
</g>
</svg>