<?xml version="1.0" encoding="UTF-8" standalone="no" ?>
<!DOCTYPE svg PUBLIC "-//W3C//DTD SVG 1.1//EN" "http://www.w3.org/Graphics/SVG/1.1/DTD/svg11.dtd">
<svg xmlns="http://www.w3.org/2000/svg" xmlns:xlink="http://www.w3.org/1999/xlink" version="1.1" width="100" height="100" viewBox="0 0 1080 1080" xml:space="preserve">
<desc>Created with Fabric.js 5.2.4</desc>
<defs>
</defs>
<rect x="0" y="0" width="100%" height="100%" fill="transparent"></rect>
<g transform="matrix(1 0 0 1 540 540)" id="9f216537-fd7e-489b-9b07-41e9ea2371ab"  >
<rect style="stroke: none; stroke-width: 1; stroke-dasharray: none; stroke-linecap: butt; stroke-dashoffset: 0; stroke-linejoin: miter; stroke-miterlimit: 4; fill: rgb(255,255,255); fill-rule: nonzero; opacity: 1; visibility: hidden;" vector-effect="non-scaling-stroke"  x="-540" y="-540" rx="0" ry="0" width="1080" height="1080" />
</g>
<g transform="matrix(1 0 0 1 540 540)" id="60bf1989-3107-45bd-93d2-bfcbd15fd6f9"  >
</g>
<g transform="matrix(-15.49 0 0 -17.13 639.91 302.59)"  >
<path style="stroke: none; stroke-width: 1; stroke-dasharray: none; stroke-linecap: butt; stroke-dashoffset: 0; stroke-linejoin: miter; stroke-miterlimit: 4; fill: rgb(0,0,0); fill-opacity: 0.25; fill-rule: evenodd; opacity: 1;" vector-effect="non-scaling-stroke"  transform=" translate(-291.1, -200.83)" d="M 309.710938 206.761719 C 309.710938 206.761719 312.363281 202.667969 312.40625 197.820312 C 312.460938 192.972656 309.199219 189.972656 306.855469 191.871094 C 306.667969 192.03125 312.945312 194.46875 309.710938 206.761719 M 294.664062 211.402344 C 305.898438 208.457031 308.40625 196.230469 298.933594 194.386719 C 299.539062 193.847656 300.265625 193.445312 301.101562 193.230469 C 301.804688 193.042969 302.515625 193.015625 303.191406 193.109375 C 303.6875 191.386719 305.0625 189.957031 306.9375 189.472656 C 309.765625 188.734375 312.660156 190.417969 313.417969 193.230469 C 315.949219 202.800781 308.039062 214.175781 296.710938 216.816406 C 284.546875 219.65625 272.257812 212.804688 269.066406 200.769531 C 267.53125 194.96875 268.417969 189.082031 271.101562 184.210938 C 269.402344 188.15625 268.957031 192.691406 270.144531 197.160156 C 272.960938 207.851562 283.9375 214.21875 294.664062 211.402344 Z M 294.664062 211.402344" stroke-linecap="round" />
</g>
<g transform="matrix(15.95 0 0 17.13 498.64 777.41)"  >
<path style="stroke: none; stroke-width: 1; stroke-dasharray: none; stroke-linecap: butt; stroke-dashoffset: 0; stroke-linejoin: miter; stroke-miterlimit: 4; fill: rgb(0,0,0); fill-opacity: 0.25; fill-rule: evenodd; opacity: 1;" vector-effect="non-scaling-stroke"  transform=" translate(-291.1, -200.83)" d="M 309.710938 206.761719 C 309.710938 206.761719 312.363281 202.667969 312.40625 197.820312 C 312.460938 192.972656 309.199219 189.972656 306.855469 191.871094 C 306.667969 192.03125 312.945312 194.46875 309.710938 206.761719 M 294.664062 211.402344 C 305.898438 208.457031 308.40625 196.230469 298.933594 194.386719 C 299.539062 193.847656 300.265625 193.445312 301.101562 193.230469 C 301.804688 193.042969 302.515625 193.015625 303.191406 193.109375 C 303.6875 191.386719 305.0625 189.957031 306.9375 189.472656 C 309.765625 188.734375 312.660156 190.417969 313.417969 193.230469 C 315.949219 202.800781 308.039062 214.175781 296.710938 216.816406 C 284.546875 219.65625 272.257812 212.804688 269.066406 200.769531 C 267.53125 194.96875 268.417969 189.082031 271.101562 184.210938 C 269.402344 188.15625 268.957031 192.691406 270.144531 197.160156 C 272.960938 207.851562 283.9375 214.21875 294.664062 211.402344 Z M 294.664062 211.402344" stroke-linecap="round" />
</g>
<g transform="matrix(17.13 0 0 17.13 741.1 508.24)"  >
<path style="stroke: none; stroke-width: 1; stroke-dasharray: none; stroke-linecap: butt; stroke-dashoffset: 0; stroke-linejoin: miter; stroke-miterlimit: 4; fill: rgb(0,0,0); fill-opacity: 0.25; fill-rule: evenodd; opacity: 1;" vector-effect="non-scaling-stroke"  transform=" translate(-307.06, -185.12)" d="M 312.363281 188.976562 C 312.363281 188.976562 310.492188 182.082031 304.738281 181.316406 C 301.128906 180.832031 301.398438 183.320312 302.449219 184.414062 C 304.46875 186.527344 308.929688 183.953125 312.363281 188.976562" stroke-linecap="round" />
</g>
<g transform="matrix(17.13 0 0 17.13 570.92 621.33)"  >
<path style="stroke: none; stroke-width: 1; stroke-dasharray: none; stroke-linecap: butt; stroke-dashoffset: 0; stroke-linejoin: miter; stroke-miterlimit: 4; fill: rgb(0,0,0); fill-opacity: 0.25; fill-rule: evenodd; opacity: 1;" vector-effect="non-scaling-stroke"  transform=" translate(-297.37, -191.73)" d="M 301.804688 191.519531 C 295.484375 188.316406 291.710938 192.316406 293.300781 193.027344 C 294.097656 193.390625 295.472656 192.949219 296.46875 192.503906 C 298.125 191.777344 300.066406 191.359375 301.804688 191.519531" stroke-linecap="round" />
</g>
<g transform="matrix(17.13 0 0 17.13 571.13 538.85)"  >
<path style="stroke: none; stroke-width: 1; stroke-dasharray: none; stroke-linecap: butt; stroke-dashoffset: 0; stroke-linejoin: miter; stroke-miterlimit: 4; fill: rgb(0,0,0); fill-opacity: 0.25; fill-rule: evenodd; opacity: 1;" vector-effect="non-scaling-stroke"  transform=" translate(-297.14, -186.91)" d="M 304.324219 188.382812 C 295.203125 181.503906 288.089844 186.78125 290.390625 188.382812 C 291.550781 189.191406 293.867188 188.855469 295.578125 188.4375 C 298.40625 187.75 301.601562 187.628906 304.324219 188.382812" stroke-linecap="round" />
</g>
<g transform="matrix(0 0 0 0 0 0)"  >
<g style=""   >
</g>
</g>
<g transform="matrix(2.16 0 0 2.16 1813.49 908.86)"  >
<g style=""   >
		<g transform="matrix(1 0 0 1 -161.96 18.65)"  >
<path style="stroke: none; stroke-width: 1; stroke-dasharray: none; stroke-linecap: butt; stroke-dashoffset: 0; stroke-linejoin: miter; stroke-miterlimit: 4; fill: rgb(0,0,0); fill-opacity: 0.25; fill-rule: evenodd; opacity: 1;" vector-effect="non-scaling-stroke"  transform=" translate(-88.04, -268.65)" d="M 26.5728 246.365 C 35.6093 280.51 70.6926 300.859 104.932 291.885 C 130.719 285.099 148.703 263.609 152.151 238.849 C 153.203 268.057 133.937 295.13 104.375 302.875 C 70.1406 311.88 35.052 291.505 26.0208 257.354 C 23.7968 248.906 23.3593 240.427 24.4999 232.302 C 24.6458 236.948 25.3489 241.687 26.5728 246.365 Z" stroke-linecap="round" />
</g>
		<g transform="matrix(1 0 0 1 -192.25 -16.75)"  >
<path style="stroke: none; stroke-width: 1; stroke-dasharray: none; stroke-linecap: butt; stroke-dashoffset: 0; stroke-linejoin: miter; stroke-miterlimit: 4; fill: rgb(0,0,0); fill-opacity: 0.25; fill-rule: evenodd; opacity: 1;" vector-effect="non-scaling-stroke"  transform=" translate(-57.74, -233.25)" d="M 96.2501 181.313 C 62.0679 172.047 26.8387 192.13 17.5106 226.188 C 10.4949 251.828 20.2033 278.083 39.9949 293.432 C 14.0887 279.75 0.203269 249.578 8.24494 220.198 C 17.5679 186.135 52.8022 166.052 86.9793 175.318 C 95.4324 177.599 103.031 181.49 109.521 186.516 C 105.401 184.354 100.953 182.568 96.2501 181.313 Z" stroke-linecap="round" />
</g>
		<g transform="matrix(1 0 0 1 -152.29 -28.73)"  >
<path style="stroke: none; stroke-width: 1; stroke-dasharray: none; stroke-linecap: butt; stroke-dashoffset: 0; stroke-linejoin: miter; stroke-miterlimit: 4; fill: rgb(0,0,0); fill-opacity: 0.25; fill-rule: evenodd; opacity: 1;" vector-effect="non-scaling-stroke"  transform=" translate(-97.71, -221.27)" d="M 117.974 273.99 C 143.114 249.141 143.292 208.677 118.354 183.594 C 99.5519 164.734 71.8957 159.969 48.6509 169.385 C 73.4998 153.891 106.656 156.99 128.177 178.594 C 153.114 203.651 152.969 244.109 127.797 268.99 C 121.568 275.13 114.406 279.75 106.776 282.849 C 110.75 280.333 114.495 277.412 117.974 273.99 Z" stroke-linecap="round" />
</g>
		<g transform="matrix(1 0 0 1 -169.58 -4.23)"  >
<path style="stroke: none; stroke-width: 1; stroke-dasharray: none; stroke-linecap: butt; stroke-dashoffset: 0; stroke-linejoin: miter; stroke-miterlimit: 4; fill: rgb(0,0,0); fill-opacity: 0.25; fill-rule: evenodd; opacity: 1;" vector-effect="non-scaling-stroke"  transform=" translate(-80.42, -245.77)" d="M 120.807 258.641 C 120.807 258.641 126.567 249.755 126.656 239.229 C 126.771 228.703 119.698 222.182 114.609 226.307 C 114.198 226.656 127.823 231.948 120.807 258.641 Z M 88.1508 268.729 C 112.531 262.328 117.974 235.781 97.4164 231.776 C 98.7342 230.604 100.312 229.729 102.125 229.26 C 103.646 228.849 105.192 228.792 106.656 228.995 C 107.739 225.255 110.719 222.156 114.786 221.104 C 120.927 219.495 127.213 223.151 128.849 229.26 C 134.344 250.047 117.182 274.75 92.5935 280.479 C 66.1925 286.651 39.5258 271.771 32.5987 245.63 C 29.2654 233.031 31.1925 220.255 37.0154 209.672 C 33.3279 218.24 32.3644 228.089 34.9373 237.797 C 41.0467 261.01 64.8748 274.839 88.1508 268.729 Z" stroke-linecap="round" />
</g>
		<g transform="matrix(1 0 0 1 -134.94 -38.36)"  >
<path style="stroke: none; stroke-width: 1; stroke-dasharray: none; stroke-linecap: butt; stroke-dashoffset: 0; stroke-linejoin: miter; stroke-miterlimit: 4; fill: rgb(0,0,0); fill-opacity: 0.25; fill-rule: evenodd; opacity: 1;" vector-effect="non-scaling-stroke"  transform=" translate(-115.06, -211.64)" d="M 126.567 220.021 C 126.567 220.021 122.505 205.052 110.021 203.385 C 102.182 202.333 102.771 207.74 105.047 210.109 C 109.432 214.698 119.114 209.115 126.567 220.021 Z" stroke-linecap="round" />
</g>
		<g transform="matrix(1 0 0 1 -155.97 -24)"  >
<path style="stroke: none; stroke-width: 1; stroke-dasharray: none; stroke-linecap: butt; stroke-dashoffset: 0; stroke-linejoin: miter; stroke-miterlimit: 4; fill: rgb(0,0,0); fill-opacity: 0.25; fill-rule: evenodd; opacity: 1;" vector-effect="non-scaling-stroke"  transform=" translate(-94.03, -226)" d="M 103.646 225.547 C 89.9321 218.588 81.7446 227.271 85.1977 228.823 C 86.9216 229.609 89.906 228.646 92.0675 227.682 C 95.6612 226.104 99.8748 225.198 103.646 225.547 Z" stroke-linecap="round" />
</g>
		<g transform="matrix(1 0 0 1 -156.48 -34.47)"  >
<path style="stroke: none; stroke-width: 1; stroke-dasharray: none; stroke-linecap: butt; stroke-dashoffset: 0; stroke-linejoin: miter; stroke-miterlimit: 4; fill: rgb(0,0,0); fill-opacity: 0.25; fill-rule: evenodd; opacity: 1;" vector-effect="non-scaling-stroke"  transform=" translate(-93.52, -215.53)" d="M 109.115 218.734 C 89.3179 203.797 73.8804 215.255 78.8804 218.734 C 81.396 220.49 86.4272 219.76 90.1356 218.854 C 96.2762 217.359 103.208 217.099 109.115 218.734 Z" stroke-linecap="round" />
</g>
		<g transform="matrix(1 0 0 1 -47.65 -31.12)"  >
<path style="stroke: none; stroke-width: 1; stroke-dasharray: none; stroke-linecap: butt; stroke-dashoffset: 0; stroke-linejoin: miter; stroke-miterlimit: 4; fill: rgb(0,0,0); fill-opacity: 0.25; fill-rule: nonzero; opacity: 1;" vector-effect="non-scaling-stroke"  transform=" translate(-202.35, -218.88)" d="M 194.065 215.932 C 197.19 215.932 199.841 215.536 202.023 214.745 C 204.216 213.953 206.013 212.865 207.419 211.474 C 208.82 210.073 209.835 208.432 210.46 206.557 C 211.096 204.682 211.419 202.656 211.419 200.474 C 211.419 196.141 210.002 192.76 207.169 190.328 C 204.346 187.885 199.981 186.661 194.065 186.661 L 184.856 186.661 L 184.856 215.932 L 194.065 215.932 Z M 242.731 268.245 L 221.981 268.245 C 218.148 268.245 215.398 266.802 213.731 263.911 L 197.315 235.245 C 196.549 234.026 195.695 233.135 194.752 232.578 C 193.804 232.01 192.45 231.724 190.69 231.724 L 184.856 231.724 L 184.856 268.245 L 161.96 268.245 L 161.96 169.516 L 194.065 169.516 C 201.2 169.516 207.283 170.255 212.315 171.724 C 217.356 173.198 221.466 175.245 224.648 177.87 C 227.841 180.484 230.158 183.573 231.606 187.141 C 233.049 190.714 233.773 194.594 233.773 198.786 C 233.773 201.995 233.341 205.026 232.481 207.87 C 231.632 210.719 230.367 213.349 228.69 215.766 C 227.023 218.182 224.95 220.344 222.481 222.245 C 220.023 224.135 217.195 225.693 214.002 226.911 C 215.486 227.677 216.882 228.635 218.19 229.786 C 219.507 230.943 220.679 232.307 221.71 233.891 L 242.731 268.245 Z" stroke-linecap="round" />
</g>
		<g transform="matrix(1 0 0 1 39.68 -31.12)"  >
<path style="stroke: none; stroke-width: 1; stroke-dasharray: none; stroke-linecap: butt; stroke-dashoffset: 0; stroke-linejoin: miter; stroke-miterlimit: 4; fill: rgb(0,0,0); fill-opacity: 0.25; fill-rule: nonzero; opacity: 1;" vector-effect="non-scaling-stroke"  transform=" translate(-289.68, -218.88)" d="M 303.229 230.495 L 294.083 203.474 C 293.4 201.755 292.676 199.734 291.916 197.411 C 291.15 195.078 290.38 192.557 289.604 189.849 C 288.921 192.599 288.197 195.156 287.437 197.516 C 286.671 199.865 285.947 201.891 285.27 203.599 L 276.187 230.495 L 303.229 230.495 Z M 339.624 268.245 L 321.854 268.245 C 319.864 268.245 318.26 267.786 317.041 266.87 C 315.833 265.943 314.906 264.755 314.27 263.307 L 308.437 246.078 L 270.916 246.078 L 265.083 263.307 C 264.583 264.573 263.687 265.714 262.395 266.724 C 261.114 267.74 259.525 268.245 257.624 268.245 L 239.729 268.245 L 277.958 169.516 L 301.395 169.516 L 339.624 268.245 Z" stroke-linecap="round" />
</g>
		<g transform="matrix(1 0 0 1 124.38 -31.12)"  >
<path style="stroke: none; stroke-width: 1; stroke-dasharray: none; stroke-linecap: butt; stroke-dashoffset: 0; stroke-linejoin: miter; stroke-miterlimit: 4; fill: rgb(0,0,0); fill-opacity: 0.25; fill-rule: nonzero; opacity: 1;" vector-effect="non-scaling-stroke"  transform=" translate(-374.37, -218.88)" d="M 401.955 189.578 C 401.273 190.662 400.56 191.474 399.81 192.016 C 399.07 192.557 398.112 192.828 396.935 192.828 C 395.893 192.828 394.773 192.505 393.58 191.849 C 392.382 191.198 391.028 190.469 389.518 189.662 C 388.002 188.844 386.273 188.109 384.33 187.453 C 382.382 186.787 380.169 186.453 377.685 186.453 C 373.393 186.453 370.195 187.37 368.101 189.203 C 366.002 191.037 364.955 193.51 364.955 196.62 C 364.955 198.609 365.586 200.26 366.851 201.578 C 368.112 202.885 369.773 204.01 371.83 204.953 C 373.882 205.901 376.231 206.766 378.872 207.557 C 381.523 208.349 384.226 209.234 386.976 210.203 C 389.726 211.177 392.419 212.323 395.06 213.641 C 397.711 214.948 400.065 216.62 402.122 218.662 C 404.174 220.693 405.836 223.162 407.101 226.078 C 408.362 228.984 408.997 232.49 408.997 236.599 C 408.997 241.172 408.205 245.443 406.622 249.412 C 405.039 253.386 402.747 256.849 399.747 259.807 C 396.747 262.766 393.044 265.094 388.643 266.787 C 384.237 268.479 379.231 269.328 373.622 269.328 C 370.549 269.328 367.424 269.005 364.247 268.37 C 361.065 267.745 357.981 266.859 354.997 265.703 C 352.007 264.552 349.205 263.182 346.58 261.599 C 343.966 260.016 341.69 258.261 339.747 256.328 L 346.518 245.62 C 347.06 244.844 347.768 244.198 348.643 243.682 C 349.528 243.172 350.497 242.912 351.539 242.912 C 352.898 242.912 354.268 243.344 355.643 244.203 C 357.018 245.052 358.57 245.995 360.31 247.037 C 362.044 248.078 364.044 249.031 366.31 249.891 C 368.57 250.74 371.237 251.162 374.31 251.162 C 378.461 251.162 381.69 250.255 383.997 248.432 C 386.299 246.599 387.455 243.698 387.455 239.724 C 387.455 237.422 386.82 235.547 385.56 234.099 C 384.294 232.656 382.632 231.464 380.58 230.516 C 378.523 229.557 376.185 228.719 373.56 227.995 C 370.935 227.276 368.247 226.474 365.497 225.599 C 362.747 224.714 360.06 223.63 357.435 222.349 C 354.81 221.057 352.466 219.365 350.414 217.266 C 348.356 215.156 346.695 212.531 345.435 209.391 C 344.169 206.255 343.539 202.38 343.539 197.766 C 343.539 194.073 344.278 190.464 345.768 186.932 C 347.268 183.406 349.461 180.266 352.351 177.516 C 355.237 174.755 358.778 172.552 362.976 170.912 C 367.185 169.26 371.997 168.432 377.414 168.432 C 380.44 168.432 383.382 168.672 386.247 169.141 C 389.122 169.615 391.841 170.318 394.414 171.245 C 396.997 172.177 399.403 173.287 401.643 174.578 C 403.877 175.859 405.877 177.307 407.643 178.932 L 401.955 189.578 Z" stroke-linecap="round" />
</g>
		<g transform="matrix(1 0 0 1 204.2 -31.12)"  >
<path style="stroke: none; stroke-width: 1; stroke-dasharray: none; stroke-linecap: butt; stroke-dashoffset: 0; stroke-linejoin: miter; stroke-miterlimit: 4; fill: rgb(0,0,0); fill-opacity: 0.25; fill-rule: nonzero; opacity: 1;" vector-effect="non-scaling-stroke"  transform=" translate(-454.2, -218.88)" d="M 493.427 187.682 L 465.635 187.682 L 465.635 268.245 L 442.74 268.245 L 442.74 187.682 L 414.969 187.682 L 414.969 169.516 L 493.427 169.516 L 493.427 187.682 Z" stroke-linecap="round" />
</g>
		<g transform="matrix(1 0 0 1 -78.05 44.23)"  >
<path style="stroke: none; stroke-width: 1; stroke-dasharray: none; stroke-linecap: butt; stroke-dashoffset: 0; stroke-linejoin: miter; stroke-miterlimit: 4; fill: rgb(0,0,0); fill-opacity: 0.25; fill-rule: nonzero; opacity: 1;" vector-effect="non-scaling-stroke"  transform=" translate(-171.94, -294.22)" d="M 178.359 300.294 L 178.359 303.107 L 165.525 303.107 L 165.525 285.336 L 178.088 285.336 L 178.088 288.127 L 169.088 288.127 L 169.088 292.815 L 177.442 292.815 L 177.442 295.607 L 169.088 295.607 L 169.088 300.294 L 178.359 300.294 Z" stroke-linecap="round" />
</g>
		<g transform="matrix(1 0 0 1 -62.19 44.23)"  >
<path style="stroke: none; stroke-width: 1; stroke-dasharray: none; stroke-linecap: butt; stroke-dashoffset: 0; stroke-linejoin: miter; stroke-miterlimit: 4; fill: rgb(0,0,0); fill-opacity: 0.25; fill-rule: nonzero; opacity: 1;" vector-effect="non-scaling-stroke"  transform=" translate(-187.8, -294.22)" d="M 194.221 300.148 L 194.221 303.107 L 181.388 303.107 L 181.388 285.336 L 184.95 285.336 L 184.95 300.148 L 194.221 300.148 Z" stroke-linecap="round" />
</g>
		<g transform="matrix(1 0 0 1 -46.64 44.23)"  >
<path style="stroke: none; stroke-width: 1; stroke-dasharray: none; stroke-linecap: butt; stroke-dashoffset: 0; stroke-linejoin: miter; stroke-miterlimit: 4; fill: rgb(0,0,0); fill-opacity: 0.25; fill-rule: nonzero; opacity: 1;" vector-effect="non-scaling-stroke"  transform=" translate(-203.36, -294.22)" d="M 209.774 300.294 L 209.774 303.107 L 196.94 303.107 L 196.94 285.336 L 209.503 285.336 L 209.503 288.127 L 200.503 288.127 L 200.503 292.815 L 208.857 292.815 L 208.857 295.607 L 200.503 295.607 L 200.503 300.294 L 209.774 300.294 Z" stroke-linecap="round" />
</g>
		<g transform="matrix(1 0 0 1 -30.09 44.23)"  >
<path style="stroke: none; stroke-width: 1; stroke-dasharray: none; stroke-linecap: butt; stroke-dashoffset: 0; stroke-linejoin: miter; stroke-miterlimit: 4; fill: rgb(0,0,0); fill-opacity: 0.25; fill-rule: nonzero; opacity: 1;" vector-effect="non-scaling-stroke"  transform=" translate(-219.92, -294.22)" d="M 222.073 303.107 L 217.615 303.107 L 211.344 285.336 L 215.198 285.336 L 219.907 300.377 L 224.698 285.336 L 228.49 285.336 L 222.073 303.107 Z" stroke-linecap="round" />
</g>
		<g transform="matrix(1 0 0 1 -12.81 44.23)"  >
<path style="stroke: none; stroke-width: 1; stroke-dasharray: none; stroke-linecap: butt; stroke-dashoffset: 0; stroke-linejoin: miter; stroke-miterlimit: 4; fill: rgb(0,0,0); fill-opacity: 0.25; fill-rule: nonzero; opacity: 1;" vector-effect="non-scaling-stroke"  transform=" translate(-237.2, -294.22)" d="M 240.143 297.752 L 234.185 297.752 L 232.393 303.107 L 228.623 303.107 L 235.018 285.336 L 239.477 285.336 L 245.768 303.107 L 241.893 303.107 L 240.143 297.752 Z M 237.185 288.377 L 235.081 294.94 L 239.248 294.94 L 237.185 288.377 Z" stroke-linecap="round" />
</g>
		<g transform="matrix(1 0 0 1 4.02 44.23)"  >
<path style="stroke: none; stroke-width: 1; stroke-dasharray: none; stroke-linecap: butt; stroke-dashoffset: 0; stroke-linejoin: miter; stroke-miterlimit: 4; fill: rgb(0,0,0); fill-opacity: 0.25; fill-rule: nonzero; opacity: 1;" vector-effect="non-scaling-stroke"  transform=" translate(-254.02, -294.22)" d="M 261.821 288.127 L 255.8 288.127 L 255.8 303.107 L 252.258 303.107 L 252.258 288.127 L 246.217 288.127 L 246.217 285.336 L 261.821 285.336 L 261.821 288.127 Z" stroke-linecap="round" />
</g>
		<g transform="matrix(1 0 0 1 20.39 44.23)"  >
<path style="stroke: none; stroke-width: 1; stroke-dasharray: none; stroke-linecap: butt; stroke-dashoffset: 0; stroke-linejoin: miter; stroke-miterlimit: 4; fill: rgb(0,0,0); fill-opacity: 0.25; fill-rule: nonzero; opacity: 1;" vector-effect="non-scaling-stroke"  transform=" translate(-270.38, -294.22)" d="M 276.801 300.294 L 276.801 303.107 L 263.968 303.107 L 263.968 285.336 L 276.53 285.336 L 276.53 288.127 L 267.53 288.127 L 267.53 292.815 L 275.884 292.815 L 275.884 295.607 L 267.53 295.607 L 267.53 300.294 L 276.801 300.294 Z" stroke-linecap="round" />
</g>
		<g transform="matrix(1 0 0 1 35.59 44.22)"  >
<path style="stroke: none; stroke-width: 1; stroke-dasharray: none; stroke-linecap: butt; stroke-dashoffset: 0; stroke-linejoin: miter; stroke-miterlimit: 4; fill: rgb(0,0,0); fill-opacity: 0.25; fill-rule: nonzero; opacity: 1;" vector-effect="non-scaling-stroke"  transform=" translate(-285.59, -294.22)" d="M 285.725 284.982 C 287.751 284.982 289.298 285.492 290.371 286.502 C 291.439 287.518 292.079 288.872 292.288 290.565 L 288.663 290.565 C 288.564 289.638 288.251 288.914 287.725 288.398 C 287.21 287.888 286.501 287.627 285.6 287.627 C 284.861 287.627 284.257 287.81 283.788 288.169 C 283.329 288.534 283.1 289.06 283.1 289.752 C 283.1 290.502 283.376 291.096 283.934 291.523 C 284.486 291.956 285.475 292.331 286.892 292.648 C 288.819 293.096 290.246 293.773 291.163 294.69 C 292.09 295.596 292.559 296.768 292.559 298.211 C 292.559 299.825 291.918 301.101 290.642 302.044 C 289.376 302.992 287.819 303.461 285.975 303.461 C 283.819 303.461 282.1 302.992 280.809 302.044 C 279.517 301.086 278.788 299.69 278.621 297.857 L 282.246 297.857 C 282.439 298.804 282.871 299.534 283.538 300.044 C 284.204 300.56 285.001 300.815 285.934 300.815 C 286.751 300.815 287.439 300.617 287.996 300.211 C 288.564 299.794 288.85 299.247 288.85 298.565 C 288.85 297.815 288.579 297.211 288.038 296.752 C 287.496 296.284 286.579 295.893 285.288 295.586 C 283.298 295.101 281.814 294.461 280.829 293.669 C 279.855 292.877 279.371 291.721 279.371 290.19 C 279.371 288.607 279.986 287.346 281.225 286.398 C 282.46 285.456 283.96 284.982 285.725 284.982 Z" stroke-linecap="round" />
</g>
		<g transform="matrix(1 0 0 1 57.24 44.23)"  >
<path style="stroke: none; stroke-width: 1; stroke-dasharray: none; stroke-linecap: butt; stroke-dashoffset: 0; stroke-linejoin: miter; stroke-miterlimit: 4; fill: rgb(0,0,0); fill-opacity: 0.25; fill-rule: nonzero; opacity: 1;" vector-effect="non-scaling-stroke"  transform=" translate(-307.24, -294.22)" d="M 309.21 285.461 C 310.637 285.617 311.793 286.164 312.668 287.107 C 313.554 288.039 314.002 289.294 314.002 290.877 C 314.002 292.435 313.543 293.685 312.627 294.627 C 311.721 295.56 310.585 296.107 309.21 296.273 C 308.471 296.372 307.611 296.419 306.627 296.419 L 304.043 296.419 L 304.043 303.107 L 300.481 303.107 L 300.481 285.336 L 306.627 285.336 C 307.627 285.336 308.486 285.377 309.21 285.461 Z M 308.148 293.523 C 309.564 293.315 310.273 292.435 310.273 290.877 C 310.273 289.31 309.564 288.429 308.148 288.232 C 307.757 288.179 307.236 288.148 306.585 288.148 L 304.043 288.148 L 304.043 293.607 L 306.585 293.607 C 307.236 293.607 307.757 293.58 308.148 293.523 Z" stroke-linecap="round" />
</g>
		<g transform="matrix(1 0 0 1 72.94 44.23)"  >
<path style="stroke: none; stroke-width: 1; stroke-dasharray: none; stroke-linecap: butt; stroke-dashoffset: 0; stroke-linejoin: miter; stroke-miterlimit: 4; fill: rgb(0,0,0); fill-opacity: 0.25; fill-rule: nonzero; opacity: 1;" vector-effect="non-scaling-stroke"  transform=" translate(-322.94, -294.22)" d="M 329.356 300.294 L 329.356 303.107 L 316.523 303.107 L 316.523 285.336 L 329.085 285.336 L 329.085 288.127 L 320.085 288.127 L 320.085 292.815 L 328.44 292.815 L 328.44 295.607 L 320.085 295.607 L 320.085 300.294 L 329.356 300.294 Z" stroke-linecap="round" />
</g>
		<g transform="matrix(1 0 0 1 89.46 44.23)"  >
<path style="stroke: none; stroke-width: 1; stroke-dasharray: none; stroke-linecap: butt; stroke-dashoffset: 0; stroke-linejoin: miter; stroke-miterlimit: 4; fill: rgb(0,0,0); fill-opacity: 0.25; fill-rule: nonzero; opacity: 1;" vector-effect="non-scaling-stroke"  transform=" translate(-339.47, -294.22)" d="M 345.26 298.627 C 345.479 300.742 345.911 302.232 346.552 303.107 L 342.656 303.107 C 342.224 301.929 341.932 300.607 341.781 299.148 C 341.542 297.138 340.745 296.08 339.385 295.982 C 339.062 295.955 338.599 295.94 337.989 295.94 L 335.948 295.94 L 335.948 303.107 L 332.385 303.107 L 332.385 285.336 L 338.864 285.336 C 339.849 285.336 340.708 285.377 341.448 285.461 C 342.849 285.643 343.974 286.117 344.823 286.877 C 345.682 287.643 346.114 288.747 346.114 290.19 C 346.114 291.304 345.802 292.226 345.177 292.961 C 344.562 293.685 343.719 294.2 342.635 294.502 C 344.161 295.086 345.036 296.461 345.26 298.627 Z M 335.948 293.294 L 338.385 293.294 C 339.094 293.294 339.573 293.289 339.823 293.273 C 341.531 293.122 342.385 292.268 342.385 290.711 C 342.385 289.909 342.177 289.315 341.76 288.94 C 341.354 288.554 340.781 288.304 340.031 288.19 C 339.614 288.148 339.114 288.127 338.531 288.127 L 335.948 288.127 L 335.948 293.294 Z" stroke-linecap="round" />
</g>
		<g transform="matrix(1 0 0 1 105.51 44.23)"  >
<path style="stroke: none; stroke-width: 1; stroke-dasharray: none; stroke-linecap: butt; stroke-dashoffset: 0; stroke-linejoin: miter; stroke-miterlimit: 4; fill: rgb(0,0,0); fill-opacity: 0.25; fill-rule: nonzero; opacity: 1;" vector-effect="non-scaling-stroke"  transform=" translate(-355.51, -294.22)" d="M 352.788 288.127 L 352.788 292.815 L 360.892 292.815 L 360.892 295.607 L 352.788 295.607 L 352.788 303.107 L 349.226 303.107 L 349.226 285.336 L 361.788 285.336 L 361.788 288.127 L 352.788 288.127 Z" stroke-linecap="round" />
</g>
		<g transform="matrix(1 0 0 1 122.3 44.22)"  >
<path style="stroke: none; stroke-width: 1; stroke-dasharray: none; stroke-linecap: butt; stroke-dashoffset: 0; stroke-linejoin: miter; stroke-miterlimit: 4; fill: rgb(0,0,0); fill-opacity: 0.25; fill-rule: nonzero; opacity: 1;" vector-effect="non-scaling-stroke"  transform=" translate(-372.3, -294.22)" d="M 372.308 284.982 C 375.016 284.982 377.152 285.825 378.724 287.502 C 380.292 289.169 381.079 291.414 381.079 294.232 C 381.079 297.023 380.292 299.263 378.724 300.94 C 377.152 302.622 375.006 303.461 372.287 303.461 C 369.579 303.461 367.438 302.622 365.87 300.94 C 364.297 299.263 363.516 297.023 363.516 294.232 C 363.516 291.414 364.292 289.169 365.849 287.502 C 367.417 285.825 369.568 284.982 372.308 284.982 Z M 368.579 299.086 C 369.48 300.242 370.714 300.815 372.287 300.815 C 373.87 300.815 375.105 300.232 375.995 299.065 C 376.896 297.898 377.349 296.289 377.349 294.232 C 377.349 292.148 376.896 290.534 375.995 289.377 C 375.105 288.211 373.875 287.627 372.308 287.627 C 370.709 287.627 369.459 288.211 368.558 289.377 C 367.667 290.534 367.224 292.148 367.224 294.232 C 367.224 296.304 367.672 297.919 368.579 299.086 Z" stroke-linecap="round" />
</g>
		<g transform="matrix(1 0 0 1 141.27 44.23)"  >
<path style="stroke: none; stroke-width: 1; stroke-dasharray: none; stroke-linecap: butt; stroke-dashoffset: 0; stroke-linejoin: miter; stroke-miterlimit: 4; fill: rgb(0,0,0); fill-opacity: 0.25; fill-rule: nonzero; opacity: 1;" vector-effect="non-scaling-stroke"  transform=" translate(-391.28, -294.22)" d="M 397.069 298.627 C 397.288 300.742 397.72 302.232 398.361 303.107 L 394.465 303.107 C 394.032 301.929 393.741 300.607 393.59 299.148 C 393.35 297.138 392.553 296.08 391.194 295.982 C 390.871 295.955 390.407 295.94 389.798 295.94 L 387.756 295.94 L 387.756 303.107 L 384.194 303.107 L 384.194 285.336 L 390.673 285.336 C 391.657 285.336 392.517 285.377 393.256 285.461 C 394.657 285.643 395.782 286.117 396.631 286.877 C 397.491 287.643 397.923 288.747 397.923 290.19 C 397.923 291.304 397.611 292.226 396.986 292.961 C 396.371 293.685 395.527 294.2 394.444 294.502 C 395.97 295.086 396.845 296.461 397.069 298.627 Z M 387.756 293.294 L 390.194 293.294 C 390.902 293.294 391.381 293.289 391.631 293.273 C 393.34 293.122 394.194 292.268 394.194 290.711 C 394.194 289.909 393.986 289.315 393.569 288.94 C 393.163 288.554 392.59 288.304 391.84 288.19 C 391.423 288.148 390.923 288.127 390.34 288.127 L 387.756 288.127 L 387.756 293.294 Z" stroke-linecap="round" />
</g>
		<g transform="matrix(1 0 0 1 160.61 44.23)"  >
<path style="stroke: none; stroke-width: 1; stroke-dasharray: none; stroke-linecap: butt; stroke-dashoffset: 0; stroke-linejoin: miter; stroke-miterlimit: 4; fill: rgb(0,0,0); fill-opacity: 0.25; fill-rule: nonzero; opacity: 1;" vector-effect="non-scaling-stroke"  transform=" translate(-410.62, -294.22)" d="M 420.201 285.336 L 420.201 303.107 L 416.638 303.107 L 416.638 294.898 C 416.638 292.08 416.649 290.054 416.68 288.815 C 416.206 290.872 415.659 292.888 415.034 294.857 L 412.534 303.107 L 408.68 303.107 L 406.138 294.836 C 405.482 292.659 404.951 290.659 404.534 288.836 C 404.576 290.075 404.597 292.096 404.597 294.898 L 404.597 303.107 L 401.034 303.107 L 401.034 285.336 L 406.638 285.336 L 410.659 299.836 L 414.68 285.336 L 420.201 285.336 Z" stroke-linecap="round" />
</g>
		<g transform="matrix(1 0 0 1 180.81 44.23)"  >
<path style="stroke: none; stroke-width: 1; stroke-dasharray: none; stroke-linecap: butt; stroke-dashoffset: 0; stroke-linejoin: miter; stroke-miterlimit: 4; fill: rgb(0,0,0); fill-opacity: 0.25; fill-rule: nonzero; opacity: 1;" vector-effect="non-scaling-stroke"  transform=" translate(-430.81, -294.22)" d="M 433.757 297.752 L 427.799 297.752 L 426.007 303.107 L 422.236 303.107 L 428.632 285.336 L 433.09 285.336 L 439.382 303.107 L 435.507 303.107 L 433.757 297.752 Z M 430.799 288.377 L 428.695 294.94 L 432.861 294.94 L 430.799 288.377 Z" stroke-linecap="round" />
</g>
		<g transform="matrix(1 0 0 1 199.34 44.23)"  >
<path style="stroke: none; stroke-width: 1; stroke-dasharray: none; stroke-linecap: butt; stroke-dashoffset: 0; stroke-linejoin: miter; stroke-miterlimit: 4; fill: rgb(0,0,0); fill-opacity: 0.25; fill-rule: nonzero; opacity: 1;" vector-effect="non-scaling-stroke"  transform=" translate(-449.34, -294.22)" d="M 457.143 303.107 L 452.268 303.107 L 444.956 289.607 C 445.049 291.232 445.102 293.054 445.102 295.065 L 445.102 303.107 L 441.539 303.107 L 441.539 285.336 L 446.247 285.336 L 453.727 299.086 C 453.628 297.492 453.581 295.627 453.581 293.502 L 453.581 285.336 L 457.122 285.336 L 457.143 303.107 Z" stroke-linecap="round" />
</g>
		<g transform="matrix(1 0 0 1 218.28 44.22)"  >
<path style="stroke: none; stroke-width: 1; stroke-dasharray: none; stroke-linecap: butt; stroke-dashoffset: 0; stroke-linejoin: miter; stroke-miterlimit: 4; fill: rgb(0,0,0); fill-opacity: 0.25; fill-rule: nonzero; opacity: 1;" vector-effect="non-scaling-stroke"  transform=" translate(-468.28, -294.22)" d="M 468.734 284.982 C 471.052 284.982 472.864 285.544 474.172 286.669 C 475.474 287.794 476.218 289.273 476.401 291.107 L 476.422 291.357 L 472.88 291.357 L 472.817 291.107 C 472.359 288.789 470.974 287.627 468.672 287.627 C 467.239 287.627 466.078 288.211 465.192 289.377 C 464.317 290.534 463.88 292.117 463.88 294.127 C 463.88 296.268 464.317 297.919 465.192 299.086 C 466.078 300.242 467.224 300.815 468.63 300.815 C 469.755 300.815 470.656 300.502 471.338 299.877 C 472.031 299.242 472.505 298.351 472.755 297.211 L 472.797 296.961 L 476.317 296.961 L 476.297 297.211 C 476.114 299.127 475.323 300.648 473.922 301.773 C 472.531 302.898 470.713 303.461 468.463 303.461 C 465.963 303.461 463.948 302.643 462.422 301.002 C 460.89 299.351 460.13 297.127 460.13 294.336 C 460.13 291.476 460.932 289.206 462.547 287.523 C 464.156 285.831 466.218 284.982 468.734 284.982 Z" stroke-linecap="round" />
</g>
		<g transform="matrix(1 0 0 1 236.02 44.23)"  >
<path style="stroke: none; stroke-width: 1; stroke-dasharray: none; stroke-linecap: butt; stroke-dashoffset: 0; stroke-linejoin: miter; stroke-miterlimit: 4; fill: rgb(0,0,0); fill-opacity: 0.25; fill-rule: nonzero; opacity: 1;" vector-effect="non-scaling-stroke"  transform=" translate(-486.01, -294.22)" d="M 492.431 300.294 L 492.431 303.107 L 479.598 303.107 L 479.598 285.336 L 492.16 285.336 L 492.16 288.127 L 483.16 288.127 L 483.16 292.815 L 491.514 292.815 L 491.514 295.607 L 483.16 295.607 L 483.16 300.294 L 492.431 300.294 Z" stroke-linecap="round" />
</g>
</g>
</g>
</svg>