<?xml version="1.0" encoding="UTF-8" standalone="no" ?>
<!DOCTYPE svg PUBLIC "-//W3C//DTD SVG 1.1//EN" "http://www.w3.org/Graphics/SVG/1.1/DTD/svg11.dtd">
<svg xmlns="http://www.w3.org/2000/svg" xmlns:xlink="http://www.w3.org/1999/xlink" version="1.1" width="1080" height="1080" viewBox="0 0 1080 1080" xml:space="preserve">
<desc>Created with Fabric.js 5.2.4</desc>
<defs>
</defs>
<rect x="0" y="0" width="100%" height="100%" fill="transparent"></rect>
<g transform="matrix(1 0 0 1 540 540)" id="60bf1989-3107-45bd-93d2-bfcbd15fd6f9"  >
</g>
<g transform="matrix(1 0 0 1 540 540)" id="9f216537-fd7e-489b-9b07-41e9ea2371ab"  >
<rect style="stroke: none; stroke-width: 1; stroke-dasharray: none; stroke-linecap: butt; stroke-dashoffset: 0; stroke-linejoin: miter; stroke-miterlimit: 4; fill: rgb(255,255,255); fill-rule: nonzero; opacity: 1; visibility: hidden;" vector-effect="non-scaling-stroke"  x="-540" y="-540" rx="0" ry="0" width="1080" height="1080" />
</g>
<g transform="matrix(16.01 0 0 17.19 472.64 780)"  >
<path style="stroke: none; stroke-width: 1; stroke-dasharray: none; stroke-linecap: butt; stroke-dashoffset: 0; stroke-linejoin: miter; stroke-miterlimit: 4; fill: rgb(95,172,232); fill-rule: evenodd; opacity: 1;" vector-effect="non-scaling-stroke"  transform=" translate(-291.1, -200.83)" d="M 309.710938 206.761719 C 309.710938 206.761719 312.363281 202.667969 312.40625 197.820312 C 312.460938 192.972656 309.199219 189.972656 306.855469 191.871094 C 306.667969 192.03125 312.945312 194.46875 309.710938 206.761719 M 294.664062 211.402344 C 305.898438 208.457031 308.40625 196.230469 298.933594 194.386719 C 299.539062 193.847656 300.265625 193.445312 301.101562 193.230469 C 301.804688 193.042969 302.515625 193.015625 303.191406 193.109375 C 303.6875 191.386719 305.0625 189.957031 306.9375 189.472656 C 309.765625 188.734375 312.660156 190.417969 313.417969 193.230469 C 315.949219 202.800781 308.039062 214.175781 296.710938 216.816406 C 284.546875 219.65625 272.257812 212.804688 269.066406 200.769531 C 267.53125 194.96875 268.417969 189.082031 271.101562 184.210938 C 269.402344 188.15625 268.957031 192.691406 270.144531 197.160156 C 272.960938 207.851562 283.9375 214.21875 294.664062 211.402344 Z M 294.664062 211.402344" stroke-linecap="round" />
</g>
<g transform="matrix(17.19 0 0 17.19 715.9 509.84)"  >
<path style="stroke: none; stroke-width: 1; stroke-dasharray: none; stroke-linecap: butt; stroke-dashoffset: 0; stroke-linejoin: miter; stroke-miterlimit: 4; fill: rgb(95,172,232); fill-rule: evenodd; opacity: 1;" vector-effect="non-scaling-stroke"  transform=" translate(-307.06, -185.12)" d="M 312.363281 188.976562 C 312.363281 188.976562 310.492188 182.082031 304.738281 181.316406 C 301.128906 180.832031 301.398438 183.320312 302.449219 184.414062 C 304.46875 186.527344 308.929688 183.953125 312.363281 188.976562" stroke-linecap="round" />
</g>
<g transform="matrix(17.19 0 0 17.19 549.41 623.37)"  >
<path style="stroke: none; stroke-width: 1; stroke-dasharray: none; stroke-linecap: butt; stroke-dashoffset: 0; stroke-linejoin: miter; stroke-miterlimit: 4; fill: rgb(95,172,232); fill-rule: evenodd; opacity: 1;" vector-effect="non-scaling-stroke"  transform=" translate(-297.37, -191.73)" d="M 301.804688 191.519531 C 295.484375 188.316406 291.710938 192.316406 293.300781 193.027344 C 294.097656 193.390625 295.472656 192.949219 296.46875 192.503906 C 298.125 191.777344 300.066406 191.359375 301.804688 191.519531" stroke-linecap="round" />
</g>
<g transform="matrix(17.19 0 0 17.19 545.27 540.57)"  >
<path style="stroke: none; stroke-width: 1; stroke-dasharray: none; stroke-linecap: butt; stroke-dashoffset: 0; stroke-linejoin: miter; stroke-miterlimit: 4; fill: rgb(95,172,232); fill-rule: evenodd; opacity: 1;" vector-effect="non-scaling-stroke"  transform=" translate(-297.14, -186.91)" d="M 304.324219 188.382812 C 295.203125 181.503906 288.089844 186.78125 290.390625 188.382812 C 291.550781 189.191406 293.867188 188.855469 295.578125 188.4375 C 298.40625 187.75 301.601562 187.628906 304.324219 188.382812" stroke-linecap="round" />
</g>
<g transform="matrix(-15.54 0 0 -17.19 618.75 299.15)"  >
<path style="stroke: none; stroke-width: 1; stroke-dasharray: none; stroke-linecap: butt; stroke-dashoffset: 0; stroke-linejoin: miter; stroke-miterlimit: 4; fill: rgb(42,200,172); fill-rule: evenodd; opacity: 1;" vector-effect="non-scaling-stroke"  transform=" translate(-291.1, -200.83)" d="M 309.710938 206.761719 C 309.710938 206.761719 312.363281 202.667969 312.40625 197.820312 C 312.460938 192.972656 309.199219 189.972656 306.855469 191.871094 C 306.667969 192.03125 312.945312 194.46875 309.710938 206.761719 M 294.664062 211.402344 C 305.898438 208.457031 308.40625 196.230469 298.933594 194.386719 C 299.539062 193.847656 300.265625 193.445312 301.101562 193.230469 C 301.804688 193.042969 302.515625 193.015625 303.191406 193.109375 C 303.6875 191.386719 305.0625 189.957031 306.9375 189.472656 C 309.765625 188.734375 312.660156 190.417969 313.417969 193.230469 C 315.949219 202.800781 308.039062 214.175781 296.710938 216.816406 C 284.546875 219.65625 272.257812 212.804688 269.066406 200.769531 C 267.53125 194.96875 268.417969 189.082031 271.101562 184.210938 C 269.402344 188.15625 268.957031 192.691406 270.144531 197.160156 C 272.960938 207.851562 283.9375 214.21875 294.664062 211.402344 Z M 294.664062 211.402344" stroke-linecap="round" />
</g>
</svg>